<svg width="594" height="524" viewBox="0 0 594 524" fill="none" xmlns="http://www.w3.org/2000/svg">
<path d="M461.715 147.301C464.397 157.148 464.722 167.419 462.668 177.394C460.613 187.37 456.229 196.807 449.822 205.045C440.256 217.116 426.62 226.142 418.127 238.853C399.772 266.296 409.625 303.77 392.789 332.04C378.716 355.69 349.562 367.307 322.491 377.279C301.234 385.103 279.764 392.976 257.231 396.13C234.698 399.283 210.465 397.283 190.94 386.414C174.838 377.476 163.008 363.307 152.082 349.157C125.223 314.343 100.948 276.435 92.6998 234.32C84.4519 192.205 94.7404 144.966 128.561 115.828C145.025 101.639 166.59 91.854 178.207 74.0088C190.398 55.2866 190.568 29.1641 209.519 16.1177C216.513 11.2992 225.207 9.06237 233.837 7.99816C254.615 5.51863 275.703 9.27959 294.006 18.729C312.574 28.3758 327.816 43.7083 348.042 49.8768C374.221 57.8683 407.818 51.7293 425.217 75.3785C439.193 94.3963 455.508 125.15 461.715 147.301Z" fill="#F2F5F9"/>
<path fill-rule="evenodd" clip-rule="evenodd" d="M282.935 93.8899C289.411 97.5164 295.774 99.2686 298.76 98.5533C306.25 96.7597 306.938 71.3038 301.143 61.2682C295.349 51.2327 265.558 46.8586 264.057 66.7422C263.536 73.6431 266.654 79.8018 271.262 84.8271L263 120.607H287L282.935 93.8899Z" fill="#F7C2B2"/>
<path fill-rule="evenodd" clip-rule="evenodd" d="M269.418 89.303C266.406 76.8518 257.825 68.3643 259.135 62.7992C260.446 57.234 266.121 55.8776 266.121 55.8776C266.121 55.8776 269.057 44.8444 285.056 46.4919C296.099 45.4632 305.22 41.9899 312.797 44.8446C318.477 48.9718 315.443 62.3421 302.823 64.7561C298.946 64.7561 298.046 66.5939 291.576 68.8256C288.496 69.8877 287.17 75.4131 287.17 75.4131H284.246C284.246 75.4131 279.989 68.856 275.851 70.594C271.713 72.332 273.97 79.0372 273.97 79.0372L272.529 89.303H269.418Z" fill="#191847"/>
<path d="M180 276.747C180 254.656 197.909 236.747 220 236.747H287C309.091 236.747 327 254.656 327 276.747V311.958C327 334.049 309.091 351.958 287 351.958H220C197.909 351.958 180 334.049 180 311.958V276.747Z" fill="#997659"/>
<path fill-rule="evenodd" clip-rule="evenodd" d="M426.159 347.312C406.443 324.943 393.103 308.359 386.138 297.562C374.213 279.073 364.453 262.621 361.373 256.337C354.028 241.351 378.282 234.334 383.771 241.324C392.079 251.903 409.822 285.194 437 341.196L426.159 347.312Z" fill="#F6C2B2"/>
<path fill-rule="evenodd" clip-rule="evenodd" d="M405.193 333.482C394.325 337.579 382.158 332.39 377.592 321.71L349.065 254.992C341.217 239.348 379.116 229.065 384.883 236.346C392.946 246.523 407.844 275.157 419.014 296.807C425.752 309.869 418.946 328.299 405.193 333.482Z" fill="#33B074"/>
<path fill-rule="evenodd" clip-rule="evenodd" d="M288.033 323.598C295.181 313.911 321.179 281.321 335.339 267.837C339.408 263.962 343.379 260.242 347.134 256.777C358.296 246.475 380.524 263.79 369.382 273.173C341.635 296.541 301.151 328.086 297.769 330.899C293.028 334.841 283.541 329.686 288.033 323.598Z" fill="#F6C2B2"/>
<path fill-rule="evenodd" clip-rule="evenodd" d="M297.035 323.887C293.027 321.738 287.711 319.868 285.065 323.589C285.005 323.674 284.95 323.757 284.899 323.837C282.596 327.543 284.515 332.101 288.361 334.163C297.32 338.97 313.111 347.44 322.634 352.548C327.371 355.089 336.676 352.375 332.304 349.316C330.919 348.348 329.71 347.489 328.732 346.789C326.918 345.49 325.326 343.941 323.974 342.209L310.794 325.338C309.554 323.751 307.156 323.459 305.44 324.686C304.662 325.243 303.7 325.513 302.753 325.385C301.137 325.167 298.573 324.712 297.035 323.887Z" fill="#AFB9C5"/>
<path fill-rule="evenodd" clip-rule="evenodd" d="M426.537 344.604C421.887 344.604 416 345.548 416 350.198C416 354.487 419.989 357.533 424.278 357.533C434.648 357.533 453.308 357.533 464.373 357.533C469.708 357.533 476.065 350.844 470.765 350.241C469.03 350.044 467.51 349.861 466.28 349.708C464.03 349.428 461.835 348.83 459.74 347.962L439.12 339.421C437.24 338.642 435.082 339.505 434.257 341.365C433.875 342.225 433.186 342.914 432.304 343.241C430.788 343.803 428.316 344.604 426.537 344.604Z" fill="#AFB9C5"/>
<path fill-rule="evenodd" clip-rule="evenodd" d="M336.014 259.33C335.916 259.288 335.817 259.272 335.712 259.256C332.839 258.821 289.598 252.269 274.581 249.809C245.846 245.101 236.923 230.992 241.16 200.547C241.364 199.085 242.625 198.005 244.102 198.005L295.539 198.005C295.801 198.005 296.019 198.027 296.271 198.099C308.192 201.519 385.005 233.359 386.154 233.835C386.191 233.85 386.186 233.849 386.222 233.866C395.689 238.284 393.918 251.201 392.18 255.462C392.084 255.695 353.713 316.72 345.52 329.75C344.655 331.126 342.878 331.52 341.479 330.692L302.537 307.642C300.943 306.699 300.576 304.552 301.766 303.133L335.745 262.621C335.878 262.462 335.995 262.291 336.081 262.103C336.387 261.433 337.027 259.758 336.014 259.33Z" fill="#36C982"/>
<path fill-rule="evenodd" clip-rule="evenodd" d="M383.082 155.851L360.725 186.191L348.306 173.074L372.996 153.462C375.998 149.492 378.331 145.992 380.155 143.255C383.079 138.869 384.695 136.444 385.665 137.186C386.98 138.192 386.403 139.696 385.872 141.084C385.448 142.191 385.052 143.224 385.665 143.871C386.557 144.813 388.866 143.578 391.795 142.011C393.404 141.15 395.199 140.19 397.05 139.434C402.272 137.304 401.545 140.031 400.664 141.548C396.335 146.378 390.475 151.146 383.082 155.851ZM221 180.132L200.508 176.355C186.611 210.388 178.326 229.038 175.652 232.304C173.692 234.7 161.603 240.87 153.42 244.165C150.135 245.488 150.841 248.067 151.804 248.892C157.88 254.096 163.529 252.272 169.678 250.286C171.459 249.711 173.281 249.123 175.167 248.688C180.05 247.561 181.536 249.894 182.94 252.099C184.184 254.051 185.363 255.903 188.779 255.164C188.624 254.541 188.433 253.843 188.227 253.09C186.895 248.221 184.931 241.04 187.845 236.868C189.34 234.727 200.392 215.815 221 180.132Z" fill="#F6C2B2"/>
<path d="M378.759 153.075C378.21 154.23 378.167 155.537 378.638 156.719C379.109 157.901 380.058 158.865 381.283 159.408C384.493 160.869 387.989 161.713 391.562 161.889C393.991 162.413 397.331 160.657 399.04 157.355C400.748 154.054 409.292 137.913 412.805 129.267C413.071 128.644 413.197 127.977 413.176 127.307C413.155 126.638 412.988 125.98 412.684 125.373C412.38 124.766 411.945 124.224 411.408 123.778C410.87 123.333 410.24 122.994 409.556 122.782L399.184 120.695C397.956 120.338 396.628 120.415 395.455 120.912C394.283 121.408 393.348 122.289 392.831 123.384L378.759 153.075Z" fill="#3D3D54"/>
<path d="M409.773 127.57L394.464 157.64C394.263 157.994 393.94 158.274 393.546 158.434C393.151 158.594 392.711 158.624 392.296 158.521L382.831 155.382C382.47 155.262 382.075 155.208 381.759 155.003C381.601 154.901 381.471 154.766 381.377 154.61C381.283 154.453 381.229 154.279 381.219 154.1C381.208 153.921 381.242 153.742 381.317 153.577L395.667 124.422C395.867 124.068 396.191 123.788 396.585 123.628C396.979 123.468 397.42 123.438 397.835 123.541L408.836 125.923C409.026 125.954 409.206 126.026 409.363 126.131C409.519 126.237 409.647 126.375 409.737 126.533C409.827 126.692 409.877 126.868 409.884 127.048C409.89 127.227 409.852 127.406 409.773 127.57Z" fill="#C3DBEE"/>
<path fill-rule="evenodd" clip-rule="evenodd" d="M276.606 110.68C276.609 107.462 279.017 104.751 282.208 104.242C284.191 103.926 286.217 104.494 287.591 105.933C304.811 123.984 312.374 161.72 324.414 166.898C335.125 171.505 343.545 166.427 359.786 160.49C363.254 159.222 367.093 159.797 370.074 161.91C375.644 165.858 376.509 173.846 371.278 178.361C349.025 197.57 320.359 205.682 306.66 197.99C283.138 184.784 276.581 139.73 276.606 110.68Z" fill="#446EC1"/>
<path fill-rule="evenodd" clip-rule="evenodd" d="M239 206.086C239 206.086 291.008 206.086 315.511 206.086C319.008 206.086 318.349 201.396 317.843 199.029C312.011 171.713 289.241 142.267 289.241 103.382L267.172 100.167C248.917 127.444 242.605 161.028 239 206.086Z" fill="#F2F6F9"/>
<path fill-rule="evenodd" clip-rule="evenodd" d="M266.722 100.167C266.084 100.167 265.453 100.335 264.901 100.655C218.791 127.342 189.829 167.682 178.016 221.674C176.775 227.346 180.607 232.809 186.32 233.849C189.88 234.497 193.539 233.3 195.879 230.539C205.079 219.69 215.953 203.909 228.504 183.195C228.919 182.51 230.021 182.991 229.803 183.762C223.526 205.927 241.594 225.598 264.631 225.598C280.544 225.598 294.668 215.687 294.271 199.779C293.436 166.313 280.228 119.369 275.87 104.717C275.056 101.982 272.546 100.167 269.693 100.167C269.547 100.167 269.402 100.172 269.258 100.181C268.42 100.237 267.562 100.167 266.722 100.167Z" fill="#5079CA"/>
<g filter="url(#filter0_d)">
<path d="M505 388C505 385.239 502.761 383 500 383H328.619L310.551 366L309.915 383H290C287.239 383 285 385.239 285 388V459C285 461.761 287.239 464 290 464H500C502.761 464 505 461.761 505 459V388Z" fill="white"/>
</g>
<path d="M304.062 408C306.943 408 308.568 406.209 308.568 403.254C308.568 400.318 306.943 398.545 304.192 398.545H301.145V408H304.062ZM302.29 406.984V399.561H304.118C306.334 399.561 307.46 400.964 307.46 403.254C307.46 405.562 306.334 406.984 303.989 406.984H302.29ZM313.222 408.148C315.142 408.148 316.435 406.689 316.435 404.491C316.435 402.276 315.142 400.817 313.222 400.817C311.301 400.817 310.009 402.276 310.009 404.491C310.009 406.689 311.301 408.148 313.222 408.148ZM313.222 407.169C311.763 407.169 311.098 405.913 311.098 404.491C311.098 403.07 311.763 401.795 313.222 401.795C314.68 401.795 315.345 403.07 315.345 404.491C315.345 405.913 314.68 407.169 313.222 407.169ZM321.071 408.148C322.511 408.148 323.564 407.428 323.896 406.357L322.843 406.061C322.566 406.8 321.925 407.169 321.071 407.169C319.792 407.169 318.91 406.343 318.859 404.824H324.007V404.362C324.007 401.722 322.437 400.817 320.96 400.817C319.04 400.817 317.765 402.331 317.765 404.51C317.765 406.689 319.021 408.148 321.071 408.148ZM318.859 403.882C318.933 402.779 319.714 401.795 320.96 401.795C322.142 401.795 322.899 402.682 322.899 403.882H318.859ZM330.687 402.497C330.345 401.491 329.579 400.817 328.176 400.817C326.68 400.817 325.572 401.666 325.572 402.866C325.572 403.845 326.153 404.501 327.455 404.805L328.637 405.082C329.353 405.249 329.69 405.59 329.69 406.08C329.69 406.689 329.043 407.188 328.028 407.188C327.137 407.188 326.578 406.804 326.384 406.043L325.35 406.301C325.604 407.506 326.597 408.148 328.046 408.148C329.694 408.148 330.816 407.248 330.816 406.024C330.816 405.036 330.198 404.413 328.933 404.104L327.88 403.845C327.04 403.637 326.661 403.356 326.661 402.811C326.661 402.202 327.308 401.759 328.176 401.759C329.127 401.759 329.519 402.285 329.708 402.774L330.687 402.497ZM336.112 408H337.202V400.909H336.112V408ZM336.666 399.727C337.091 399.727 337.442 399.395 337.442 398.989C337.442 398.582 337.091 398.25 336.666 398.25C336.242 398.25 335.891 398.582 335.891 398.989C335.891 399.395 336.242 399.727 336.666 399.727ZM342.281 400.909H340.767V399.21H339.677V400.909H338.606V401.832H339.677V406.264C339.677 407.501 340.675 408.092 341.598 408.092C342.004 408.092 342.263 408.018 342.41 407.963L342.189 406.984C342.097 407.003 341.949 407.04 341.709 407.04C341.229 407.04 340.767 406.892 340.767 405.969V401.832H342.281V400.909ZM349.663 408.166C350.9 408.166 351.546 407.501 351.768 407.04H351.823V408H352.913V403.328C352.913 401.075 351.196 400.817 350.291 400.817C349.22 400.817 348.001 401.186 347.447 402.479L348.481 402.848C348.721 402.331 349.289 401.777 350.328 401.777C351.329 401.777 351.823 402.308 351.823 403.217V403.254C351.823 403.781 351.288 403.734 349.995 403.901C348.68 404.071 347.244 404.362 347.244 405.987C347.244 407.372 348.315 408.166 349.663 408.166ZM349.829 407.188C348.961 407.188 348.333 406.8 348.333 406.043C348.333 405.212 349.09 404.953 349.94 404.842C350.402 404.787 351.639 404.658 351.823 404.436V405.433C351.823 406.32 351.122 407.188 349.829 407.188ZM355.991 398.545H354.901V408H355.991V398.545ZM360.959 408.148C362.4 408.148 363.452 407.428 363.785 406.357L362.732 406.061C362.455 406.8 361.813 407.169 360.959 407.169C359.681 407.169 358.799 406.343 358.748 404.824H363.896V404.362C363.896 401.722 362.326 400.817 360.849 400.817C358.928 400.817 357.654 402.331 357.654 404.51C357.654 406.689 358.91 408.148 360.959 408.148ZM358.748 403.882C358.822 402.779 359.602 401.795 360.849 401.795C362.03 401.795 362.788 402.682 362.788 403.882H358.748ZM365.553 408H366.642V403.513C366.642 402.553 367.399 401.851 368.434 401.851C368.724 401.851 369.024 401.906 369.098 401.925V400.817C368.974 400.808 368.687 400.798 368.526 400.798C367.676 400.798 366.938 401.278 366.679 401.98H366.605V400.909H365.553V408ZM373.918 400.909H372.404V399.21H371.314V400.909H370.243V401.832H371.314V406.264C371.314 407.501 372.311 408.092 373.235 408.092C373.641 408.092 373.899 408.018 374.047 407.963L373.826 406.984C373.733 407.003 373.585 407.04 373.345 407.04C372.865 407.04 372.404 406.892 372.404 405.969V401.832H373.918V400.909ZM379.915 410.641C380.898 410.641 381.595 410.119 382.001 409.034L385.021 400.928L383.829 400.909L381.872 406.56H381.798L379.841 400.909H378.659L381.281 408.037L381.078 408.591C380.69 409.653 380.192 409.754 379.398 409.551L379.121 410.511C379.231 410.567 379.545 410.641 379.915 410.641ZM389.089 408.148C391.009 408.148 392.302 406.689 392.302 404.491C392.302 402.276 391.009 400.817 389.089 400.817C387.168 400.817 385.876 402.276 385.876 404.491C385.876 406.689 387.168 408.148 389.089 408.148ZM389.089 407.169C387.63 407.169 386.965 405.913 386.965 404.491C386.965 403.07 387.63 401.795 389.089 401.795C390.548 401.795 391.212 403.07 391.212 404.491C391.212 405.913 390.548 407.169 389.089 407.169ZM398.434 405.101C398.434 406.43 397.418 407.04 396.606 407.04C395.701 407.04 395.054 406.375 395.054 405.341V400.909H393.965V405.415C393.965 407.224 394.925 408.092 396.255 408.092C397.326 408.092 398.027 407.52 398.36 406.8H398.434V408H399.523V400.909H398.434V405.101ZM408.259 400.909H406.744V399.21H405.655V400.909H404.584V401.832H405.655V406.264C405.655 407.501 406.652 408.092 407.575 408.092C407.982 408.092 408.24 408.018 408.388 407.963L408.166 406.984C408.074 407.003 407.926 407.04 407.686 407.04C407.206 407.04 406.744 406.892 406.744 405.969V401.832H408.259V400.909ZM412.702 408.148C414.623 408.148 415.915 406.689 415.915 404.491C415.915 402.276 414.623 400.817 412.702 400.817C410.782 400.817 409.489 402.276 409.489 404.491C409.489 406.689 410.782 408.148 412.702 408.148ZM412.702 407.169C411.243 407.169 410.578 405.913 410.578 404.491C410.578 403.07 411.243 401.795 412.702 401.795C414.161 401.795 414.826 403.07 414.826 404.491C414.826 405.913 414.161 407.169 412.702 407.169ZM421.234 408H422.324V400.909H421.234V408ZM421.788 399.727C422.213 399.727 422.564 399.395 422.564 398.989C422.564 398.582 422.213 398.25 421.788 398.25C421.364 398.25 421.013 398.582 421.013 398.989C421.013 399.395 421.364 399.727 421.788 399.727ZM424.319 408H425.409V403.513C425.409 402.553 426.166 401.851 427.2 401.851C427.491 401.851 427.791 401.906 427.865 401.925V400.817C427.74 400.808 427.454 400.798 427.292 400.798C426.443 400.798 425.704 401.278 425.446 401.98H425.372V400.909H424.319V408ZM429.156 408H430.246V403.513C430.246 402.553 431.003 401.851 432.037 401.851C432.328 401.851 432.628 401.906 432.702 401.925V400.817C432.577 400.808 432.291 400.798 432.129 400.798C431.28 400.798 430.541 401.278 430.283 401.98H430.209V400.909H429.156V408ZM436.75 408.148C438.191 408.148 439.243 407.428 439.576 406.357L438.523 406.061C438.246 406.8 437.604 407.169 436.75 407.169C435.472 407.169 434.59 406.343 434.539 404.824H439.687V404.362C439.687 401.722 438.117 400.817 436.64 400.817C434.719 400.817 433.445 402.331 433.445 404.51C433.445 406.689 434.701 408.148 436.75 408.148ZM434.539 403.882C434.613 402.779 435.393 401.795 436.64 401.795C437.821 401.795 438.579 402.682 438.579 403.882H434.539ZM444.206 410.807C445.905 410.807 447.271 410.031 447.271 408.203V400.909H446.219V402.036H446.108C445.868 401.666 445.425 400.817 444.04 400.817C442.249 400.817 441.011 402.239 441.011 404.418C441.011 406.634 442.304 407.889 444.021 407.889C445.406 407.889 445.85 407.077 446.09 406.689H446.182V408.129C446.182 409.311 445.351 409.847 444.206 409.847C442.918 409.847 442.466 409.168 442.175 408.776L441.307 409.385C441.75 410.128 442.623 410.807 444.206 410.807ZM444.169 406.911C442.803 406.911 442.101 405.876 442.101 404.399C442.101 402.959 442.784 401.795 444.169 401.795C445.499 401.795 446.2 402.866 446.2 404.399C446.2 405.969 445.48 406.911 444.169 406.911ZM453.734 405.101C453.734 406.43 452.719 407.04 451.906 407.04C451.002 407.04 450.355 406.375 450.355 405.341V400.909H449.266V405.415C449.266 407.224 450.226 408.092 451.555 408.092C452.627 408.092 453.328 407.52 453.661 406.8H453.734V408H454.824V400.909H453.734V405.101ZM457.909 398.545H456.819V408H457.909V398.545ZM461.991 408.166C463.228 408.166 463.875 407.501 464.096 407.04H464.152V408H465.241V403.328C465.241 401.075 463.524 400.817 462.619 400.817C461.548 400.817 460.329 401.186 459.775 402.479L460.809 402.848C461.049 402.331 461.617 401.777 462.656 401.777C463.658 401.777 464.152 402.308 464.152 403.217V403.254C464.152 403.781 463.616 403.734 462.323 403.901C461.008 404.071 459.572 404.362 459.572 405.987C459.572 407.372 460.643 408.166 461.991 408.166ZM462.157 407.188C461.289 407.188 460.661 406.8 460.661 406.043C460.661 405.212 461.419 404.953 462.268 404.842C462.73 404.787 463.967 404.658 464.152 404.436V405.433C464.152 406.32 463.45 407.188 462.157 407.188ZM467.23 408H468.319V403.513C468.319 402.553 469.076 401.851 470.11 401.851C470.401 401.851 470.701 401.906 470.775 401.925V400.817C470.65 400.808 470.364 400.798 470.203 400.798C469.353 400.798 468.615 401.278 468.356 401.98H468.282V400.909H467.23V408ZM306.02 422.497C305.678 421.491 304.912 420.817 303.509 420.817C302.013 420.817 300.905 421.666 300.905 422.866C300.905 423.845 301.487 424.501 302.788 424.805L303.97 425.082C304.686 425.249 305.023 425.59 305.023 426.08C305.023 426.689 304.376 427.188 303.361 427.188C302.47 427.188 301.911 426.804 301.717 426.043L300.683 426.301C300.937 427.506 301.93 428.148 303.379 428.148C305.027 428.148 306.149 427.248 306.149 426.024C306.149 425.036 305.531 424.413 304.266 424.104L303.213 423.845C302.373 423.637 301.994 423.356 301.994 422.811C301.994 422.202 302.641 421.759 303.509 421.759C304.46 421.759 304.852 422.285 305.041 422.774L306.02 422.497ZM308.491 430.641C309.474 430.641 310.171 430.119 310.578 429.034L313.597 420.928L312.406 420.909L310.448 426.56H310.374L308.417 420.909H307.235L309.857 428.037L309.654 428.591C309.266 429.653 308.768 429.754 307.974 429.551L307.697 430.511C307.808 430.567 308.122 430.641 308.491 430.641ZM320.061 422.497C319.719 421.491 318.953 420.817 317.55 420.817C316.054 420.817 314.946 421.666 314.946 422.866C314.946 423.845 315.528 424.501 316.829 424.805L318.011 425.082C318.727 425.249 319.064 425.59 319.064 426.08C319.064 426.689 318.417 427.188 317.402 427.188C316.511 427.188 315.952 426.804 315.758 426.043L314.724 426.301C314.978 427.506 315.971 428.148 317.42 428.148C319.068 428.148 320.19 427.248 320.19 426.024C320.19 425.036 319.572 424.413 318.307 424.104L317.254 423.845C316.414 423.637 316.035 423.356 316.035 422.811C316.035 422.202 316.682 421.759 317.55 421.759C318.501 421.759 318.893 422.285 319.082 422.774L320.061 422.497ZM324.914 420.909H323.4V419.21H322.31V420.909H321.239V421.832H322.31V426.264C322.31 427.501 323.307 428.092 324.231 428.092C324.637 428.092 324.896 428.018 325.043 427.963L324.822 426.984C324.729 427.003 324.582 427.04 324.342 427.04C323.861 427.04 323.4 426.892 323.4 425.969V421.832H324.914V420.909ZM329.45 428.148C330.89 428.148 331.943 427.428 332.275 426.357L331.222 426.061C330.945 426.8 330.304 427.169 329.45 427.169C328.171 427.169 327.289 426.343 327.238 424.824H332.386V424.362C332.386 421.722 330.816 420.817 329.339 420.817C327.418 420.817 326.144 422.331 326.144 424.51C326.144 426.689 327.4 428.148 329.45 428.148ZM327.238 423.882C327.312 422.779 328.092 421.795 329.339 421.795C330.521 421.795 331.278 422.682 331.278 423.882H327.238ZM334.043 428H335.133V423.568C335.133 422.529 335.89 421.795 336.739 421.795C337.565 421.795 338.142 422.336 338.142 423.143V428H339.25V423.384C339.25 422.469 339.823 421.795 340.82 421.795C341.596 421.795 342.26 422.206 342.26 423.254V428H343.35V423.254C343.35 421.588 342.454 420.817 341.189 420.817C340.174 420.817 339.43 421.283 339.066 422.017H338.992C338.641 421.26 338.022 420.817 337.09 420.817C336.167 420.817 335.483 421.26 335.188 422.017H335.096V420.909H334.043V428ZM349.146 428H350.198V426.911H350.328C350.568 427.298 351.029 428.148 352.396 428.148C354.169 428.148 355.406 426.726 355.406 424.473C355.406 422.239 354.169 420.817 352.377 420.817C350.992 420.817 350.568 421.666 350.328 422.036H350.235V418.545H349.146V428ZM350.217 424.455C350.217 422.866 350.919 421.795 352.248 421.795C353.633 421.795 354.316 422.959 354.316 424.455C354.316 425.969 353.615 427.169 352.248 427.169C350.937 427.169 350.217 426.061 350.217 424.455ZM360.045 428.148C361.486 428.148 362.538 427.428 362.871 426.357L361.818 426.061C361.541 426.8 360.899 427.169 360.045 427.169C358.767 427.169 357.885 426.343 357.834 424.824H362.981V424.362C362.981 421.722 361.412 420.817 359.935 420.817C358.014 420.817 356.74 422.331 356.74 424.51C356.74 426.689 357.996 428.148 360.045 428.148ZM357.834 423.882C357.908 422.779 358.688 421.795 359.935 421.795C361.116 421.795 361.873 422.682 361.873 423.882H357.834ZM365.728 423.734C365.728 422.497 366.518 421.795 367.593 421.795C368.618 421.795 369.237 422.442 369.237 423.568V428H370.326V423.494C370.326 421.671 369.357 420.817 367.907 420.817C366.79 420.817 366.153 421.283 365.821 422.017H365.728V418.545H364.639V428H365.728V423.734ZM374.406 428.166C375.643 428.166 376.29 427.501 376.511 427.04H376.567V428H377.656V423.328C377.656 421.075 375.939 420.817 375.034 420.817C373.963 420.817 372.744 421.186 372.19 422.479L373.224 422.848C373.464 422.331 374.032 421.777 375.071 421.777C376.073 421.777 376.567 422.308 376.567 423.217V423.254C376.567 423.781 376.031 423.734 374.738 423.901C373.423 424.071 371.987 424.362 371.987 425.987C371.987 427.372 373.058 428.166 374.406 428.166ZM374.572 427.188C373.704 427.188 373.077 426.8 373.077 426.043C373.077 425.212 373.834 424.953 374.683 424.842C375.145 424.787 376.382 424.658 376.567 424.436V425.433C376.567 426.32 375.865 427.188 374.572 427.188ZM385.189 420.909H384.007L382.05 426.56H381.976L380.019 420.909H378.837L381.459 428H382.567L385.189 420.909ZM386.627 428H387.717V420.909H386.627V428ZM387.181 419.727C387.606 419.727 387.957 419.395 387.957 418.989C387.957 418.582 387.606 418.25 387.181 418.25C386.756 418.25 386.405 418.582 386.405 418.989C386.405 419.395 386.756 419.727 387.181 419.727ZM392.593 428.148C394.513 428.148 395.806 426.689 395.806 424.491C395.806 422.276 394.513 420.817 392.593 420.817C390.672 420.817 389.38 422.276 389.38 424.491C389.38 426.689 390.672 428.148 392.593 428.148ZM392.593 427.169C391.134 427.169 390.469 425.913 390.469 424.491C390.469 423.07 391.134 421.795 392.593 421.795C394.051 421.795 394.716 423.07 394.716 424.491C394.716 425.913 394.051 427.169 392.593 427.169ZM397.469 428H398.558V423.513C398.558 422.553 399.315 421.851 400.35 421.851C400.64 421.851 400.94 421.906 401.014 421.925V420.817C400.89 420.808 400.603 420.798 400.442 420.798C399.592 420.798 398.854 421.278 398.595 421.98H398.521V420.909H397.469V428ZM407.328 422.497C406.987 421.491 406.221 420.817 404.817 420.817C403.321 420.817 402.213 421.666 402.213 422.866C402.213 423.845 402.795 424.501 404.097 424.805L405.279 425.082C405.994 425.249 406.331 425.59 406.331 426.08C406.331 426.689 405.685 427.188 404.669 427.188C403.778 427.188 403.22 426.804 403.026 426.043L401.992 426.301C402.246 427.506 403.238 428.148 404.688 428.148C406.336 428.148 407.458 427.248 407.458 426.024C407.458 425.036 406.839 424.413 405.574 424.104L404.522 423.845C403.681 423.637 403.303 423.356 403.303 422.811C403.303 422.202 403.949 421.759 404.817 421.759C405.768 421.759 406.161 422.285 406.35 422.774L407.328 422.497ZM415.838 420.909H414.324V419.21H413.234V420.909H412.163V421.832H413.234V426.264C413.234 427.501 414.231 428.092 415.155 428.092C415.561 428.092 415.819 428.018 415.967 427.963L415.745 426.984C415.653 427.003 415.505 427.04 415.265 427.04C414.785 427.04 414.324 426.892 414.324 425.969V421.832H415.838V420.909ZM418.718 423.734C418.718 422.497 419.508 421.795 420.584 421.795C421.608 421.795 422.227 422.442 422.227 423.568V428H423.316V423.494C423.316 421.671 422.347 420.817 420.897 420.817C419.78 420.817 419.143 421.283 418.811 422.017H418.718V418.545H417.629V428H418.718V423.734ZM427.396 428.166C428.634 428.166 429.28 427.501 429.501 427.04H429.557V428H430.646V423.328C430.646 421.075 428.929 420.817 428.024 420.817C426.953 420.817 425.734 421.186 425.18 422.479L426.214 422.848C426.455 422.331 427.022 421.777 428.061 421.777C429.063 421.777 429.557 422.308 429.557 423.217V423.254C429.557 423.781 429.021 423.734 427.729 423.901C426.413 424.071 424.977 424.362 424.977 425.987C424.977 427.372 426.048 428.166 427.396 428.166ZM427.562 427.188C426.695 427.188 426.067 426.8 426.067 426.043C426.067 425.212 426.824 424.953 427.673 424.842C428.135 424.787 429.372 424.658 429.557 424.436V425.433C429.557 426.32 428.855 427.188 427.562 427.188ZM435.719 420.909H434.204V419.21H433.115V420.909H432.044V421.832H433.115V426.264C433.115 427.501 434.112 428.092 435.035 428.092C435.442 428.092 435.7 428.018 435.848 427.963L435.626 426.984C435.534 427.003 435.386 427.04 435.146 427.04C434.666 427.04 434.204 426.892 434.204 425.969V421.832H435.719V420.909ZM444.098 420.909H442.583V419.21H441.494V420.909H440.423V421.832H441.494V426.264C441.494 427.501 442.491 428.092 443.414 428.092C443.821 428.092 444.079 428.018 444.227 427.963L444.005 426.984C443.913 427.003 443.765 427.04 443.525 427.04C443.045 427.04 442.583 426.892 442.583 425.969V421.832H444.098V420.909ZM446.978 423.734C446.978 422.497 447.768 421.795 448.843 421.795C449.868 421.795 450.487 422.442 450.487 423.568V428H451.576V423.494C451.576 421.671 450.607 420.817 449.157 420.817C448.04 420.817 447.403 421.283 447.071 422.017H446.978V418.545H445.889V428H446.978V423.734ZM453.569 428H454.659V423.513C454.659 422.553 455.416 421.851 456.45 421.851C456.741 421.851 457.041 421.906 457.115 421.925V420.817C456.99 420.808 456.704 420.798 456.542 420.798C455.693 420.798 454.954 421.278 454.696 421.98H454.622V420.909H453.569V428ZM461.164 428.148C462.604 428.148 463.656 427.428 463.989 426.357L462.936 426.061C462.659 426.8 462.018 427.169 461.164 427.169C459.885 427.169 459.003 426.343 458.952 424.824H464.1V424.362C464.1 421.722 462.53 420.817 461.053 420.817C459.132 420.817 457.858 422.331 457.858 424.51C457.858 426.689 459.114 428.148 461.164 428.148ZM458.952 423.882C459.026 422.779 459.806 421.795 461.053 421.795C462.235 421.795 462.992 422.682 462.992 423.882H458.952ZM467.844 428.166C469.081 428.166 469.727 427.501 469.949 427.04H470.004V428H471.094V423.328C471.094 421.075 469.376 420.817 468.471 420.817C467.4 420.817 466.182 421.186 465.628 422.479L466.662 422.848C466.902 422.331 467.47 421.777 468.508 421.777C469.51 421.777 470.004 422.308 470.004 423.217V423.254C470.004 423.781 469.469 423.734 468.176 423.901C466.86 424.071 465.425 424.362 465.425 425.987C465.425 427.372 466.496 428.166 467.844 428.166ZM468.01 427.188C467.142 427.188 466.514 426.8 466.514 426.043C466.514 425.212 467.271 424.953 468.121 424.842C468.582 424.787 469.819 424.658 470.004 424.436V425.433C470.004 426.32 469.302 427.188 468.01 427.188ZM476.166 420.909H474.652V419.21H473.562V420.909H472.491V421.832H473.562V426.264C473.562 427.501 474.559 428.092 475.483 428.092C475.889 428.092 476.147 428.018 476.295 427.963L476.074 426.984C475.981 427.003 475.834 427.04 475.593 427.04C475.113 427.04 474.652 426.892 474.652 425.969V421.832H476.166V420.909ZM480.702 428.148C482.142 428.148 483.195 427.428 483.527 426.357L482.474 426.061C482.197 426.8 481.556 427.169 480.702 427.169C479.423 427.169 478.541 426.343 478.49 424.824H483.638V424.362C483.638 421.722 482.068 420.817 480.591 420.817C478.67 420.817 477.396 422.331 477.396 424.51C477.396 426.689 478.652 428.148 480.702 428.148ZM478.49 423.882C478.564 422.779 479.344 421.795 480.591 421.795C481.773 421.795 482.53 422.682 482.53 423.882H478.49ZM486.384 423.734C486.384 422.497 487.151 421.795 488.194 421.795C489.205 421.795 489.819 422.456 489.819 423.568V428H490.909V423.494C490.909 421.685 489.944 420.817 488.508 420.817C487.437 420.817 486.772 421.297 486.44 422.017H486.348V420.909H485.295V428H486.384V423.734ZM301.699 450.641C302.682 450.641 303.379 450.119 303.786 449.034L306.805 440.928L305.614 440.909L303.656 446.56H303.582L301.625 440.909H300.443L303.065 448.037L302.862 448.591C302.474 449.653 301.976 449.754 301.182 449.551L300.905 450.511C301.016 450.567 301.33 450.641 301.699 450.641ZM310.873 448.148C312.793 448.148 314.086 446.689 314.086 444.491C314.086 442.276 312.793 440.817 310.873 440.817C308.953 440.817 307.66 442.276 307.66 444.491C307.66 446.689 308.953 448.148 310.873 448.148ZM310.873 447.169C309.414 447.169 308.749 445.913 308.749 444.491C308.749 443.07 309.414 441.795 310.873 441.795C312.332 441.795 312.997 443.07 312.997 444.491C312.997 445.913 312.332 447.169 310.873 447.169ZM320.218 445.101C320.218 446.43 319.202 447.04 318.39 447.04C317.485 447.04 316.839 446.375 316.839 445.341V440.909H315.749V445.415C315.749 447.224 316.709 448.092 318.039 448.092C319.11 448.092 319.812 447.52 320.144 446.8H320.218V448H321.307V440.909H320.218V445.101ZM323.303 448H324.392V443.513C324.392 442.553 325.149 441.851 326.184 441.851C326.474 441.851 326.774 441.906 326.848 441.925V440.817C326.724 440.808 326.437 440.798 326.276 440.798C325.426 440.798 324.688 441.278 324.429 441.98H324.355V440.909H323.303V448ZM332.885 443.734C332.885 442.497 333.675 441.795 334.751 441.795C335.775 441.795 336.394 442.442 336.394 443.568V448H337.483V443.494C337.483 441.671 336.514 440.817 335.064 440.817C333.947 440.817 333.31 441.283 332.978 442.017H332.885V438.545H331.796V448H332.885V443.734ZM342.45 448.148C343.89 448.148 344.943 447.428 345.275 446.357L344.222 446.061C343.945 446.8 343.304 447.169 342.45 447.169C341.171 447.169 340.289 446.343 340.238 444.824H345.386V444.362C345.386 441.722 343.816 440.817 342.339 440.817C340.418 440.817 339.144 442.331 339.144 444.51C339.144 446.689 340.4 448.148 342.45 448.148ZM340.238 443.882C340.312 442.779 341.092 441.795 342.339 441.795C343.521 441.795 344.278 442.682 344.278 443.882H340.238ZM349.13 448.166C350.367 448.166 351.013 447.501 351.235 447.04H351.29V448H352.38V443.328C352.38 441.075 350.662 440.817 349.758 440.817C348.687 440.817 347.468 441.186 346.914 442.479L347.948 442.848C348.188 442.331 348.756 441.777 349.794 441.777C350.796 441.777 351.29 442.308 351.29 443.217V443.254C351.29 443.781 350.755 443.734 349.462 443.901C348.146 444.071 346.711 444.362 346.711 445.987C346.711 447.372 347.782 448.166 349.13 448.166ZM349.296 447.188C348.428 447.188 347.8 446.8 347.8 446.043C347.8 445.212 348.557 444.953 349.407 444.842C349.868 444.787 351.106 444.658 351.29 444.436V445.433C351.29 446.32 350.589 447.188 349.296 447.188ZM355.458 438.545H354.368V448H355.458V438.545ZM360.537 440.909H359.023V439.21H357.933V440.909H356.862V441.832H357.933V446.264C357.933 447.501 358.93 448.092 359.854 448.092C360.26 448.092 360.519 448.018 360.666 447.963L360.445 446.984C360.352 447.003 360.205 447.04 359.965 447.04C359.484 447.04 359.023 446.892 359.023 445.969V441.832H360.537V440.909ZM363.418 443.734C363.418 442.497 364.207 441.795 365.283 441.795C366.308 441.795 366.926 442.442 366.926 443.568V448H368.016V443.494C368.016 441.671 367.046 440.817 365.597 440.817C364.479 440.817 363.842 441.283 363.51 442.017H363.418V438.545H362.328V448H363.418V443.734ZM375.752 448.166C376.989 448.166 377.635 447.501 377.857 447.04H377.912V448H379.002V443.328C379.002 441.075 377.284 440.817 376.38 440.817C375.309 440.817 374.09 441.186 373.536 442.479L374.57 442.848C374.81 442.331 375.378 441.777 376.417 441.777C377.418 441.777 377.912 442.308 377.912 443.217V443.254C377.912 443.781 377.377 443.734 376.084 443.901C374.768 444.071 373.333 444.362 373.333 445.987C373.333 447.372 374.404 448.166 375.752 448.166ZM375.918 447.188C375.05 447.188 374.422 446.8 374.422 446.043C374.422 445.212 375.179 444.953 376.029 444.842C376.49 444.787 377.728 444.658 377.912 444.436V445.433C377.912 446.32 377.211 447.188 375.918 447.188ZM382.08 443.734C382.08 442.497 382.846 441.795 383.889 441.795C384.9 441.795 385.514 442.456 385.514 443.568V448H386.604V443.494C386.604 441.685 385.639 440.817 384.203 440.817C383.132 440.817 382.468 441.297 382.135 442.017H382.043V440.909H380.99V448H382.08V443.734ZM391.272 448.148C392.639 448.148 393.1 447.298 393.341 446.911H393.47V448H394.522V438.545H393.433V442.036H393.341C393.1 441.666 392.676 440.817 391.291 440.817C389.5 440.817 388.262 442.239 388.262 444.473C388.262 446.726 389.5 448.148 391.272 448.148ZM391.42 447.169C390.054 447.169 389.352 445.969 389.352 444.455C389.352 442.959 390.035 441.795 391.42 441.795C392.75 441.795 393.451 442.866 393.451 444.455C393.451 446.061 392.731 447.169 391.42 447.169ZM401.932 448H403.003L404.554 442.553H404.665L406.216 448H407.287L409.447 440.909H408.303L406.77 446.32H406.696L405.2 440.909H404.037L402.523 446.338H402.449L400.916 440.909H399.771L401.932 448ZM413.62 448.148C415.06 448.148 416.112 447.428 416.445 446.357L415.392 446.061C415.115 446.8 414.474 447.169 413.62 447.169C412.341 447.169 411.459 446.343 411.408 444.824H416.556V444.362C416.556 441.722 414.986 440.817 413.509 440.817C411.588 440.817 410.314 442.331 410.314 444.51C410.314 446.689 411.57 448.148 413.62 448.148ZM411.408 443.882C411.482 442.779 412.262 441.795 413.509 441.795C414.691 441.795 415.448 442.682 415.448 443.882H411.408ZM419.302 438.545H418.213V448H419.302V438.545ZM422.387 438.545H421.298V448H422.387V438.545ZM428.445 443.439H424.309V444.455H428.445V443.439ZM430.51 448H431.563V446.911H431.692C431.932 447.298 432.394 448.148 433.76 448.148C435.533 448.148 436.77 446.726 436.77 444.473C436.77 442.239 435.533 440.817 433.742 440.817C432.357 440.817 431.932 441.666 431.692 442.036H431.6V438.545H430.51V448ZM431.581 444.455C431.581 442.866 432.283 441.795 433.612 441.795C434.997 441.795 435.681 442.959 435.681 444.455C435.681 445.969 434.979 447.169 433.612 447.169C432.301 447.169 431.581 446.061 431.581 444.455ZM441.41 448.148C442.85 448.148 443.903 447.428 444.235 446.357L443.182 446.061C442.905 446.8 442.264 447.169 441.41 447.169C440.131 447.169 439.249 446.343 439.198 444.824H444.346V444.362C444.346 441.722 442.776 440.817 441.299 440.817C439.378 440.817 438.104 442.331 438.104 444.51C438.104 446.689 439.36 448.148 441.41 448.148ZM439.198 443.882C439.272 442.779 440.052 441.795 441.299 441.795C442.481 441.795 443.238 442.682 443.238 443.882H439.198ZM446.003 448H447.093V440.909H446.003V448ZM446.557 439.727C446.982 439.727 447.333 439.395 447.333 438.989C447.333 438.582 446.982 438.25 446.557 438.25C446.132 438.25 445.781 438.582 445.781 438.989C445.781 439.395 446.132 439.727 446.557 439.727ZM450.177 443.734C450.177 442.497 450.944 441.795 451.987 441.795C452.998 441.795 453.612 442.456 453.612 443.568V448H454.702V443.494C454.702 441.685 453.737 440.817 452.301 440.817C451.23 440.817 450.565 441.297 450.233 442.017H450.141V440.909H449.088V448H450.177V443.734ZM459.555 450.807C461.254 450.807 462.62 450.031 462.62 448.203V440.909H461.567V442.036H461.457C461.217 441.666 460.773 440.817 459.388 440.817C457.597 440.817 456.36 442.239 456.36 444.418C456.36 446.634 457.653 447.889 459.37 447.889C460.755 447.889 461.198 447.077 461.438 446.689H461.531V448.129C461.531 449.311 460.7 449.847 459.555 449.847C458.267 449.847 457.814 449.168 457.523 448.776L456.656 449.385C457.099 450.128 457.971 450.807 459.555 450.807ZM459.518 446.911C458.151 446.911 457.45 445.876 457.45 444.399C457.45 442.959 458.133 441.795 459.518 441.795C460.847 441.795 461.549 442.866 461.549 444.399C461.549 445.969 460.829 446.911 459.518 446.911ZM466.036 445.341H467.144V445.286C467.163 444.141 467.458 443.642 468.271 443.134C469.083 442.64 469.563 441.929 469.563 440.909C469.563 439.469 468.511 438.416 466.886 438.416C465.39 438.416 464.203 439.339 464.134 440.909H465.298C465.367 439.82 466.129 439.376 466.886 439.376C467.754 439.376 468.455 439.949 468.455 440.854C468.455 441.588 468.035 442.114 467.495 442.442C466.59 442.991 466.05 443.527 466.036 445.286V445.341ZM466.627 448.074C467.084 448.074 467.458 447.7 467.458 447.243C467.458 446.786 467.084 446.412 466.627 446.412C466.17 446.412 465.796 446.786 465.796 447.243C465.796 447.7 466.17 448.074 466.627 448.074Z" fill="#262B35"/>
<g filter="url(#filter1_d)">
<path d="M95 258C95 255.239 97.2386 253 100 253H261.381L279.449 236L280.085 253H300C302.761 253 305 255.239 305 258V309C305 311.761 302.761 314 300 314H100C97.2386 314 95 311.761 95 309V258Z" fill="white"/>
</g>
<path d="M111.062 278C113.943 278 115.568 276.209 115.568 273.254C115.568 270.318 113.943 268.545 111.192 268.545H108.145V278H111.062ZM109.29 276.984V269.561H111.118C113.334 269.561 114.46 270.964 114.46 273.254C114.46 275.562 113.334 276.984 110.989 276.984H109.29ZM120.222 278.148C122.142 278.148 123.435 276.689 123.435 274.491C123.435 272.276 122.142 270.817 120.222 270.817C118.301 270.817 117.009 272.276 117.009 274.491C117.009 276.689 118.301 278.148 120.222 278.148ZM120.222 277.169C118.763 277.169 118.098 275.913 118.098 274.491C118.098 273.07 118.763 271.795 120.222 271.795C121.68 271.795 122.345 273.07 122.345 274.491C122.345 275.913 121.68 277.169 120.222 277.169ZM128.071 278.148C129.511 278.148 130.564 277.428 130.896 276.357L129.843 276.061C129.566 276.8 128.925 277.169 128.071 277.169C126.792 277.169 125.91 276.343 125.859 274.824H131.007V274.362C131.007 271.722 129.437 270.817 127.96 270.817C126.04 270.817 124.765 272.331 124.765 274.51C124.765 276.689 126.021 278.148 128.071 278.148ZM125.859 273.882C125.933 272.779 126.714 271.795 127.96 271.795C129.142 271.795 129.899 272.682 129.899 273.882H125.859ZM137.687 272.497C137.345 271.491 136.579 270.817 135.176 270.817C133.68 270.817 132.572 271.666 132.572 272.866C132.572 273.845 133.153 274.501 134.455 274.805L135.637 275.082C136.353 275.249 136.69 275.59 136.69 276.08C136.69 276.689 136.043 277.188 135.028 277.188C134.137 277.188 133.578 276.804 133.384 276.043L132.35 276.301C132.604 277.506 133.597 278.148 135.046 278.148C136.694 278.148 137.816 277.248 137.816 276.024C137.816 275.036 137.198 274.413 135.933 274.104L134.88 273.845C134.04 273.637 133.661 273.356 133.661 272.811C133.661 272.202 134.308 271.759 135.176 271.759C136.127 271.759 136.519 272.285 136.708 272.774L137.687 272.497ZM143.112 278H144.202V270.909H143.112V278ZM143.666 269.727C144.091 269.727 144.442 269.395 144.442 268.989C144.442 268.582 144.091 268.25 143.666 268.25C143.242 268.25 142.891 268.582 142.891 268.989C142.891 269.395 143.242 269.727 143.666 269.727ZM149.281 270.909H147.767V269.21H146.677V270.909H145.606V271.832H146.677V276.264C146.677 277.501 147.675 278.092 148.598 278.092C149.004 278.092 149.263 278.018 149.41 277.963L149.189 276.984C149.097 277.003 148.949 277.04 148.709 277.04C148.229 277.04 147.767 276.892 147.767 275.969V271.832H149.281V270.909ZM156.663 278.166C157.9 278.166 158.546 277.501 158.768 277.04H158.823V278H159.913V273.328C159.913 271.075 158.196 270.817 157.291 270.817C156.22 270.817 155.001 271.186 154.447 272.479L155.481 272.848C155.721 272.331 156.289 271.777 157.328 271.777C158.329 271.777 158.823 272.308 158.823 273.217V273.254C158.823 273.781 158.288 273.734 156.995 273.901C155.68 274.071 154.244 274.362 154.244 275.987C154.244 277.372 155.315 278.166 156.663 278.166ZM156.829 277.188C155.961 277.188 155.333 276.8 155.333 276.043C155.333 275.212 156.09 274.953 156.94 274.842C157.402 274.787 158.639 274.658 158.823 274.436V275.433C158.823 276.32 158.122 277.188 156.829 277.188ZM162.991 273.734C162.991 272.497 163.757 271.795 164.801 271.795C165.812 271.795 166.426 272.456 166.426 273.568V278H167.515V273.494C167.515 271.685 166.55 270.817 165.115 270.817C164.044 270.817 163.379 271.297 163.046 272.017H162.954V270.909H161.901V278H162.991V273.734ZM172.59 270.909H171.076V269.21H169.986V270.909H168.915V271.832H169.986V276.264C169.986 277.501 170.983 278.092 171.907 278.092C172.313 278.092 172.571 278.018 172.719 277.963L172.497 276.984C172.405 277.003 172.257 277.04 172.017 277.04C171.537 277.04 171.076 276.892 171.076 275.969V271.832H172.59V270.909ZM174.229 278H175.318V270.909H174.229V278ZM174.783 269.727C175.207 269.727 175.558 269.395 175.558 268.989C175.558 268.582 175.207 268.25 174.783 268.25C174.358 268.25 174.007 268.582 174.007 268.989C174.007 269.395 174.358 269.727 174.783 269.727ZM180.194 278.148C181.764 278.148 182.798 277.188 182.983 275.932H181.893C181.69 276.707 181.044 277.169 180.194 277.169C178.902 277.169 178.071 276.098 178.071 274.455C178.071 272.848 178.92 271.795 180.194 271.795C181.154 271.795 181.727 272.386 181.893 273.033H182.983C182.798 271.703 181.672 270.817 180.176 270.817C178.255 270.817 176.981 272.331 176.981 274.491C176.981 276.615 178.2 278.148 180.194 278.148ZM184.575 278H185.665V270.909H184.575V278ZM185.129 269.727C185.554 269.727 185.905 269.395 185.905 268.989C185.905 268.582 185.554 268.25 185.129 268.25C184.705 268.25 184.354 268.582 184.354 268.989C184.354 269.395 184.705 269.727 185.129 269.727ZM187.66 280.659H188.75V276.911H188.842C189.082 277.298 189.544 278.148 190.91 278.148C192.683 278.148 193.92 276.726 193.92 274.473C193.92 272.239 192.683 270.817 190.892 270.817C189.507 270.817 189.082 271.666 188.842 272.036H188.713V270.909H187.66V280.659ZM188.731 274.455C188.731 272.866 189.433 271.795 190.763 271.795C192.147 271.795 192.831 272.959 192.831 274.455C192.831 275.969 192.129 277.169 190.763 277.169C189.451 277.169 188.731 276.061 188.731 274.455ZM197.669 278.166C198.906 278.166 199.552 277.501 199.774 277.04H199.829V278H200.919V273.328C200.919 271.075 199.201 270.817 198.297 270.817C197.226 270.817 196.007 271.186 195.453 272.479L196.487 272.848C196.727 272.331 197.295 271.777 198.334 271.777C199.335 271.777 199.829 272.308 199.829 273.217V273.254C199.829 273.781 199.294 273.734 198.001 273.901C196.685 274.071 195.25 274.362 195.25 275.987C195.25 277.372 196.321 278.166 197.669 278.166ZM197.835 277.188C196.967 277.188 196.339 276.8 196.339 276.043C196.339 275.212 197.096 274.953 197.946 274.842C198.407 274.787 199.645 274.658 199.829 274.436V275.433C199.829 276.32 199.128 277.188 197.835 277.188ZM205.991 270.909H204.477V269.21H203.387V270.909H202.316V271.832H203.387V276.264C203.387 277.501 204.385 278.092 205.308 278.092C205.714 278.092 205.973 278.018 206.12 277.963L205.899 276.984C205.806 277.003 205.659 277.04 205.419 277.04C204.939 277.04 204.477 276.892 204.477 275.969V271.832H205.991V270.909ZM210.527 278.148C211.967 278.148 213.02 277.428 213.352 276.357L212.3 276.061C212.023 276.8 211.381 277.169 210.527 277.169C209.248 277.169 208.366 276.343 208.316 274.824H213.463V274.362C213.463 271.722 211.893 270.817 210.416 270.817C208.496 270.817 207.221 272.331 207.221 274.51C207.221 276.689 208.477 278.148 210.527 278.148ZM208.316 273.882C208.389 272.779 209.17 271.795 210.416 271.795C211.598 271.795 212.355 272.682 212.355 273.882H208.316ZM223.799 272.497C223.458 271.491 222.691 270.817 221.288 270.817C219.792 270.817 218.684 271.666 218.684 272.866C218.684 273.845 219.266 274.501 220.568 274.805L221.749 275.082C222.465 275.249 222.802 275.59 222.802 276.08C222.802 276.689 222.156 277.188 221.14 277.188C220.249 277.188 219.691 276.804 219.497 276.043L218.463 276.301C218.716 277.506 219.709 278.148 221.159 278.148C222.807 278.148 223.928 277.248 223.928 276.024C223.928 275.036 223.31 274.413 222.045 274.104L220.992 273.845C220.152 273.637 219.774 273.356 219.774 272.811C219.774 272.202 220.42 271.759 221.288 271.759C222.239 271.759 222.631 272.285 222.82 272.774L223.799 272.497ZM226.27 280.641C227.253 280.641 227.951 280.119 228.357 279.034L231.376 270.928L230.185 270.909L228.228 276.56H228.154L226.196 270.909H225.014L227.637 278.037L227.434 278.591C227.046 279.653 226.547 279.754 225.753 279.551L225.476 280.511C225.587 280.567 225.901 280.641 226.27 280.641ZM237.84 272.497C237.499 271.491 236.732 270.817 235.329 270.817C233.833 270.817 232.725 271.666 232.725 272.866C232.725 273.845 233.307 274.501 234.609 274.805L235.79 275.082C236.506 275.249 236.843 275.59 236.843 276.08C236.843 276.689 236.197 277.188 235.181 277.188C234.29 277.188 233.732 276.804 233.538 276.043L232.504 276.301C232.757 277.506 233.75 278.148 235.2 278.148C236.848 278.148 237.969 277.248 237.969 276.024C237.969 275.036 237.351 274.413 236.086 274.104L235.033 273.845C234.193 273.637 233.815 273.356 233.815 272.811C233.815 272.202 234.461 271.759 235.329 271.759C236.28 271.759 236.672 272.285 236.862 272.774L237.84 272.497ZM242.693 270.909H241.179V269.21H240.09V270.909H239.019V271.832H240.09V276.264C240.09 277.501 241.087 278.092 242.01 278.092C242.416 278.092 242.675 278.018 242.823 277.963L242.601 276.984C242.509 277.003 242.361 277.04 242.121 277.04C241.641 277.04 241.179 276.892 241.179 275.969V271.832H242.693V270.909ZM247.229 278.148C248.669 278.148 249.722 277.428 250.054 276.357L249.002 276.061C248.725 276.8 248.083 277.169 247.229 277.169C245.95 277.169 245.068 276.343 245.018 274.824H250.165V274.362C250.165 271.722 248.595 270.817 247.118 270.817C245.198 270.817 243.924 272.331 243.924 274.51C243.924 276.689 245.179 278.148 247.229 278.148ZM245.018 273.882C245.092 272.779 245.872 271.795 247.118 271.795C248.3 271.795 249.057 272.682 249.057 273.882H245.018ZM251.822 278H252.912V273.568C252.912 272.529 253.669 271.795 254.518 271.795C255.345 271.795 255.922 272.336 255.922 273.143V278H257.03V273.384C257.03 272.469 257.602 271.795 258.599 271.795C259.375 271.795 260.04 272.206 260.04 273.254V278H261.129V273.254C261.129 271.588 260.234 270.817 258.969 270.817C257.953 270.817 257.21 271.283 256.845 272.017H256.771C256.42 271.26 255.802 270.817 254.869 270.817C253.946 270.817 253.263 271.26 252.967 272.017H252.875V270.909H251.822V278ZM107.997 298H109.087V290.909H107.997V298ZM108.551 289.727C108.976 289.727 109.327 289.395 109.327 288.989C109.327 288.582 108.976 288.25 108.551 288.25C108.126 288.25 107.776 288.582 107.776 288.989C107.776 289.395 108.126 289.727 108.551 289.727ZM116.105 292.497C115.763 291.491 114.997 290.817 113.593 290.817C112.098 290.817 110.99 291.666 110.99 292.866C110.99 293.845 111.571 294.501 112.873 294.805L114.055 295.082C114.771 295.249 115.108 295.59 115.108 296.08C115.108 296.689 114.461 297.188 113.446 297.188C112.555 297.188 111.996 296.804 111.802 296.043L110.768 296.301C111.022 297.506 112.015 298.148 113.464 298.148C115.112 298.148 116.234 297.248 116.234 296.024C116.234 295.036 115.616 294.413 114.351 294.104L113.298 293.845C112.458 293.637 112.079 293.356 112.079 292.811C112.079 292.202 112.726 291.759 113.593 291.759C114.544 291.759 114.937 292.285 115.126 292.774L116.105 292.497ZM122.897 292.497C122.555 291.491 121.789 290.817 120.385 290.817C118.89 290.817 117.782 291.666 117.782 292.866C117.782 293.845 118.363 294.501 119.665 294.805L120.847 295.082C121.563 295.249 121.9 295.59 121.9 296.08C121.9 296.689 121.253 297.188 120.238 297.188C119.347 297.188 118.788 296.804 118.594 296.043L117.56 296.301C117.814 297.506 118.807 298.148 120.256 298.148C121.904 298.148 123.026 297.248 123.026 296.024C123.026 295.036 122.407 294.413 121.143 294.104L120.09 293.845C119.25 293.637 118.871 293.356 118.871 292.811C118.871 292.202 119.518 291.759 120.385 291.759C121.336 291.759 121.729 292.285 121.918 292.774L122.897 292.497ZM129.135 295.101C129.135 296.43 128.119 297.04 127.307 297.04C126.402 297.04 125.756 296.375 125.756 295.341V290.909H124.666V295.415C124.666 297.224 125.626 298.092 126.956 298.092C128.027 298.092 128.729 297.52 129.061 296.8H129.135V298H130.224V290.909H129.135V295.101ZM135.193 298.148C136.633 298.148 137.686 297.428 138.018 296.357L136.966 296.061C136.689 296.8 136.047 297.169 135.193 297.169C133.914 297.169 133.032 296.343 132.982 294.824H138.129V294.362C138.129 291.722 136.559 290.817 135.082 290.817C133.162 290.817 131.887 292.331 131.887 294.51C131.887 296.689 133.143 298.148 135.193 298.148ZM132.982 293.882C133.055 292.779 133.836 291.795 135.082 291.795C136.264 291.795 137.021 292.682 137.021 293.882H132.982ZM144.809 292.497C144.467 291.491 143.701 290.817 142.298 290.817C140.802 290.817 139.694 291.666 139.694 292.866C139.694 293.845 140.276 294.501 141.577 294.805L142.759 295.082C143.475 295.249 143.812 295.59 143.812 296.08C143.812 296.689 143.165 297.188 142.15 297.188C141.259 297.188 140.7 296.804 140.506 296.043L139.472 296.301C139.726 297.506 140.719 298.148 142.168 298.148C143.816 298.148 144.938 297.248 144.938 296.024C144.938 295.036 144.32 294.413 143.055 294.104L142.002 293.845C141.162 293.637 140.783 293.356 140.783 292.811C140.783 292.202 141.43 291.759 142.298 291.759C143.249 291.759 143.641 292.285 143.83 292.774L144.809 292.497ZM153.392 290.909H151.804V290.189C151.804 289.487 152.1 289.118 152.82 289.118C153.134 289.118 153.318 289.192 153.429 289.229L153.743 288.287C153.577 288.213 153.244 288.102 152.709 288.102C151.693 288.102 150.715 288.712 150.715 289.93V290.909H149.57V291.832H150.715V298H151.804V291.832H153.392V290.909ZM154.919 298H156.009V293.513C156.009 292.553 156.766 291.851 157.8 291.851C158.091 291.851 158.391 291.906 158.464 291.925V290.817C158.34 290.808 158.054 290.798 157.892 290.798C157.043 290.798 156.304 291.278 156.045 291.98H155.972V290.909H154.919V298ZM162.421 298.148C164.341 298.148 165.634 296.689 165.634 294.491C165.634 292.276 164.341 290.817 162.421 290.817C160.5 290.817 159.208 292.276 159.208 294.491C159.208 296.689 160.5 298.148 162.421 298.148ZM162.421 297.169C160.962 297.169 160.297 295.913 160.297 294.491C160.297 293.07 160.962 291.795 162.421 291.795C163.88 291.795 164.544 293.07 164.544 294.491C164.544 295.913 163.88 297.169 162.421 297.169ZM167.297 298H168.386V293.568C168.386 292.529 169.144 291.795 169.993 291.795C170.819 291.795 171.396 292.336 171.396 293.143V298H172.504V293.384C172.504 292.469 173.077 291.795 174.074 291.795C174.85 291.795 175.514 292.206 175.514 293.254V298H176.604V293.254C176.604 291.588 175.708 290.817 174.443 290.817C173.428 290.817 172.684 291.283 172.32 292.017H172.246C171.895 291.26 171.276 290.817 170.344 290.817C169.421 290.817 168.737 291.26 168.442 292.017H168.35V290.909H167.297V298ZM183.859 298H184.93L186.481 292.553H186.592L188.143 298H189.214L191.374 290.909H190.229L188.697 296.32H188.623L187.127 290.909H185.964L184.449 296.338H184.376L182.843 290.909H181.698L183.859 298ZM195.546 298.148C196.987 298.148 198.039 297.428 198.372 296.357L197.319 296.061C197.042 296.8 196.4 297.169 195.546 297.169C194.268 297.169 193.386 296.343 193.335 294.824H198.482V294.362C198.482 291.722 196.913 290.817 195.436 290.817C193.515 290.817 192.241 292.331 192.241 294.51C192.241 296.689 193.497 298.148 195.546 298.148ZM193.335 293.882C193.409 292.779 194.189 291.795 195.436 291.795C196.617 291.795 197.374 292.682 197.374 293.882H193.335ZM202.226 298.166C203.464 298.166 204.11 297.501 204.331 297.04H204.387V298H205.476V293.328C205.476 291.075 203.759 290.817 202.854 290.817C201.783 290.817 200.564 291.186 200.01 292.479L201.045 292.848C201.285 292.331 201.852 291.777 202.891 291.777C203.893 291.777 204.387 292.308 204.387 293.217V293.254C204.387 293.781 203.851 293.734 202.559 293.901C201.243 294.071 199.807 294.362 199.807 295.987C199.807 297.372 200.878 298.166 202.226 298.166ZM202.393 297.188C201.525 297.188 200.897 296.8 200.897 296.043C200.897 295.212 201.654 294.953 202.503 294.842C202.965 294.787 204.202 294.658 204.387 294.436V295.433C204.387 296.32 203.685 297.188 202.393 297.188ZM207.465 298H208.554V293.513C208.554 292.553 209.312 291.851 210.346 291.851C210.636 291.851 210.937 291.906 211.01 291.925V290.817C210.886 290.808 210.6 290.798 210.438 290.798C209.589 290.798 208.85 291.278 208.591 291.98H208.517V290.909H207.465V298ZM218.045 298.166C219.282 298.166 219.928 297.501 220.15 297.04H220.205V298H221.295V293.328C221.295 291.075 219.577 290.817 218.673 290.817C217.602 290.817 216.383 291.186 215.829 292.479L216.863 292.848C217.103 292.331 217.671 291.777 218.71 291.777C219.711 291.777 220.205 292.308 220.205 293.217V293.254C220.205 293.781 219.67 293.734 218.377 293.901C217.061 294.071 215.626 294.362 215.626 295.987C215.626 297.372 216.697 298.166 218.045 298.166ZM218.211 297.188C217.343 297.188 216.715 296.8 216.715 296.043C216.715 295.212 217.472 294.953 218.322 294.842C218.783 294.787 220.021 294.658 220.205 294.436V295.433C220.205 296.32 219.504 297.188 218.211 297.188ZM224.373 293.734C224.373 292.497 225.139 291.795 226.182 291.795C227.193 291.795 227.807 292.456 227.807 293.568V298H228.897V293.494C228.897 291.685 227.932 290.817 226.496 290.817C225.425 290.817 224.761 291.297 224.428 292.017H224.336V290.909H223.283V298H224.373V293.734ZM233.565 298.148C234.932 298.148 235.393 297.298 235.634 296.911H235.763V298H236.815V288.545H235.726V292.036H235.634C235.393 291.666 234.969 290.817 233.584 290.817C231.793 290.817 230.555 292.239 230.555 294.473C230.555 296.726 231.793 298.148 233.565 298.148ZM233.713 297.169C232.347 297.169 231.645 295.969 231.645 294.455C231.645 292.959 232.328 291.795 233.713 291.795C235.043 291.795 235.744 292.866 235.744 294.455C235.744 296.061 235.024 297.169 233.713 297.169ZM245.702 290.909H244.188V289.21H243.098V290.909H242.027V291.832H243.098V296.264C243.098 297.501 244.096 298.092 245.019 298.092C245.425 298.092 245.684 298.018 245.831 297.963L245.61 296.984C245.517 297.003 245.37 297.04 245.13 297.04C244.65 297.04 244.188 296.892 244.188 295.969V291.832H245.702V290.909ZM250.238 298.148C251.678 298.148 252.731 297.428 253.063 296.357L252.01 296.061C251.733 296.8 251.092 297.169 250.238 297.169C248.959 297.169 248.077 296.343 248.026 294.824H253.174V294.362C253.174 291.722 251.604 290.817 250.127 290.817C248.206 290.817 246.932 292.331 246.932 294.51C246.932 296.689 248.188 298.148 250.238 298.148ZM248.026 293.882C248.1 292.779 248.881 291.795 250.127 291.795C251.309 291.795 252.066 292.682 252.066 293.882H248.026ZM256.918 298.166C258.155 298.166 258.801 297.501 259.023 297.04H259.078V298H260.168V293.328C260.168 291.075 258.45 290.817 257.546 290.817C256.475 290.817 255.256 291.186 254.702 292.479L255.736 292.848C255.976 292.331 256.544 291.777 257.583 291.777C258.584 291.777 259.078 292.308 259.078 293.217V293.254C259.078 293.781 258.543 293.734 257.25 293.901C255.934 294.071 254.499 294.362 254.499 295.987C254.499 297.372 255.57 298.166 256.918 298.166ZM257.084 297.188C256.216 297.188 255.588 296.8 255.588 296.043C255.588 295.212 256.345 294.953 257.195 294.842C257.656 294.787 258.894 294.658 259.078 294.436V295.433C259.078 296.32 258.377 297.188 257.084 297.188ZM262.156 298H263.246V293.513C263.246 292.553 264.003 291.851 265.037 291.851C265.328 291.851 265.628 291.906 265.702 291.925V290.817C265.577 290.808 265.291 290.798 265.129 290.798C264.28 290.798 263.541 291.278 263.283 291.98H263.209V290.909H262.156V298ZM268.415 295.341H269.523V295.286C269.542 294.141 269.837 293.642 270.65 293.134C271.462 292.64 271.942 291.929 271.942 290.909C271.942 289.469 270.89 288.416 269.265 288.416C267.769 288.416 266.582 289.339 266.513 290.909H267.676C267.746 289.82 268.507 289.376 269.265 289.376C270.132 289.376 270.834 289.949 270.834 290.854C270.834 291.588 270.414 292.114 269.874 292.442C268.969 292.991 268.429 293.527 268.415 295.286V295.341ZM269.006 298.074C269.463 298.074 269.837 297.7 269.837 297.243C269.837 296.786 269.463 296.412 269.006 296.412C268.549 296.412 268.175 296.786 268.175 297.243C268.175 297.7 268.549 298.074 269.006 298.074Z" fill="#262B35"/>
<g filter="url(#filter2_d)">
<path d="M48 124C48 121.239 50.2386 119 53 119H243C245.761 119 248 121.239 248 124V175C248 177.761 245.761 180 243 180H222.701L223.384 194L204.067 180H53C50.2386 180 48 177.761 48 175V124Z" fill="white"/>
</g>
<path d="M64.0625 143C66.9432 143 68.5682 141.209 68.5682 138.254C68.5682 135.318 66.9432 133.545 64.1918 133.545H61.1449V143H64.0625ZM62.2898 141.984V134.561H64.1179C66.3338 134.561 67.4602 135.964 67.4602 138.254C67.4602 140.562 66.3338 141.984 63.9886 141.984H62.2898ZM73.2216 143.148C75.142 143.148 76.4347 141.689 76.4347 139.491C76.4347 137.276 75.142 135.817 73.2216 135.817C71.3011 135.817 70.0085 137.276 70.0085 139.491C70.0085 141.689 71.3011 143.148 73.2216 143.148ZM73.2216 142.169C71.7628 142.169 71.098 140.913 71.098 139.491C71.098 138.07 71.7628 136.795 73.2216 136.795C74.6804 136.795 75.3452 138.07 75.3452 139.491C75.3452 140.913 74.6804 142.169 73.2216 142.169ZM81.0708 143.148C82.5111 143.148 83.5637 142.428 83.896 141.357L82.8435 141.061C82.5665 141.8 81.9248 142.169 81.0708 142.169C79.792 142.169 78.9102 141.343 78.8595 139.824H84.0068V139.362C84.0068 136.722 82.4372 135.817 80.96 135.817C79.0395 135.817 77.7654 137.331 77.7654 139.51C77.7654 141.689 79.021 143.148 81.0708 143.148ZM78.8595 138.882C78.9333 137.779 79.7135 136.795 80.96 136.795C82.1418 136.795 82.8989 137.682 82.8989 138.882H78.8595ZM90.6869 137.497C90.3453 136.491 89.5789 135.817 88.1755 135.817C86.6798 135.817 85.5718 136.666 85.5718 137.866C85.5718 138.845 86.1535 139.501 87.4553 139.805L88.6372 140.082C89.3527 140.249 89.6897 140.59 89.6897 141.08C89.6897 141.689 89.0434 142.188 88.0278 142.188C87.1368 142.188 86.5782 141.804 86.3843 141.043L85.3502 141.301C85.6041 142.506 86.5967 143.148 88.0463 143.148C89.6943 143.148 90.8161 142.248 90.8161 141.024C90.8161 140.036 90.1975 139.413 88.9326 139.104L87.8801 138.845C87.0399 138.637 86.6613 138.356 86.6613 137.811C86.6613 137.202 87.3076 136.759 88.1755 136.759C89.1265 136.759 89.5189 137.285 89.7082 137.774L90.6869 137.497ZM96.8141 145.659C97.7974 145.659 98.4899 145.137 98.9007 144.034L101.92 135.928L100.729 135.909L98.7715 141.56H98.6976L96.7402 135.909H95.5584L98.1806 143.037L97.9775 143.591C97.5804 144.671 97.0911 144.773 96.2971 144.57L96.0201 145.53C96.1309 145.585 96.4448 145.659 96.8141 145.659ZM105.988 143.148C107.909 143.148 109.201 141.689 109.201 139.491C109.201 137.276 107.909 135.817 105.988 135.817C104.068 135.817 102.775 137.276 102.775 139.491C102.775 141.689 104.068 143.148 105.988 143.148ZM105.988 142.169C104.529 142.169 103.865 140.913 103.865 139.491C103.865 138.07 104.529 136.795 105.988 136.795C107.447 136.795 108.112 138.07 108.112 139.491C108.112 140.913 107.447 142.169 105.988 142.169ZM115.333 140.101C115.333 141.43 114.317 142.04 113.505 142.04C112.6 142.04 111.954 141.375 111.954 140.341V135.909H110.864V140.415C110.864 142.224 111.825 143.092 113.154 143.092C114.225 143.092 114.927 142.52 115.259 141.8H115.333V143H116.423V135.909H115.333V140.101ZM118.418 143H119.508V138.513C119.508 137.553 120.265 136.851 121.299 136.851C121.59 136.851 121.89 136.906 121.964 136.925V135.817C121.839 135.808 121.553 135.798 121.391 135.798C120.542 135.798 119.803 136.278 119.544 136.98H119.471V135.909H118.418V143ZM128.001 138.734C128.001 137.497 128.79 136.795 129.866 136.795C130.891 136.795 131.509 137.442 131.509 138.568V143H132.599V138.494C132.599 136.671 131.629 135.817 130.18 135.817C129.062 135.817 128.425 136.283 128.093 137.017H128.001V133.545H126.911V143H128.001V138.734ZM137.473 143.148C139.393 143.148 140.686 141.689 140.686 139.491C140.686 137.276 139.393 135.817 137.473 135.817C135.552 135.817 134.259 137.276 134.259 139.491C134.259 141.689 135.552 143.148 137.473 143.148ZM137.473 142.169C136.014 142.169 135.349 140.913 135.349 139.491C135.349 138.07 136.014 136.795 137.473 136.795C138.931 136.795 139.596 138.07 139.596 139.491C139.596 140.913 138.931 142.169 137.473 142.169ZM142.349 143H143.438V138.568C143.438 137.529 144.195 136.795 145.045 136.795C145.871 136.795 146.448 137.336 146.448 138.143V143H147.556V138.384C147.556 137.469 148.129 136.795 149.126 136.795C149.901 136.795 150.566 137.206 150.566 138.254V143H151.656V138.254C151.656 136.588 150.76 135.817 149.495 135.817C148.479 135.817 147.736 136.283 147.371 137.017H147.298C146.947 136.26 146.328 135.817 145.396 135.817C144.472 135.817 143.789 136.26 143.494 137.017H143.401V135.909H142.349V143ZM156.621 143.148C158.061 143.148 159.113 142.428 159.446 141.357L158.393 141.061C158.116 141.8 157.475 142.169 156.621 142.169C155.342 142.169 154.46 141.343 154.409 139.824H159.557V139.362C159.557 136.722 157.987 135.817 156.51 135.817C154.589 135.817 153.315 137.331 153.315 139.51C153.315 141.689 154.571 143.148 156.621 143.148ZM154.409 138.882C154.483 137.779 155.263 136.795 156.51 136.795C157.692 136.795 158.449 137.682 158.449 138.882H154.409ZM164.87 143H165.96V140.346L166.721 139.639L169.376 143H170.761L167.543 138.938L170.539 135.909H169.191L166.089 139.067H165.96V133.545H164.87V143ZM173.031 138.734C173.031 137.497 173.797 136.795 174.841 136.795C175.852 136.795 176.466 137.456 176.466 138.568V143H177.555V138.494C177.555 136.685 176.59 135.817 175.155 135.817C174.084 135.817 173.419 136.297 173.086 137.017H172.994V135.909H171.941V143H173.031V138.734ZM182.427 143.148C184.347 143.148 185.64 141.689 185.64 139.491C185.64 137.276 184.347 135.817 182.427 135.817C180.506 135.817 179.214 137.276 179.214 139.491C179.214 141.689 180.506 143.148 182.427 143.148ZM182.427 142.169C180.968 142.169 180.303 140.913 180.303 139.491C180.303 138.07 180.968 136.795 182.427 136.795C183.885 136.795 184.55 138.07 184.55 139.491C184.55 140.913 183.885 142.169 182.427 142.169ZM188.668 143H189.739L191.29 137.553H191.401L192.952 143H194.023L196.184 135.909H195.039L193.506 141.32H193.432L191.937 135.909H190.773L189.259 141.338H189.185L187.653 135.909H186.508L188.668 143ZM202.887 143H203.958L205.509 137.553H205.62L207.171 143H208.242L210.403 135.909H209.258L207.725 141.32H207.651L206.155 135.909H204.992L203.478 141.338H203.404L201.871 135.909H200.726L202.887 143ZM212.932 138.734C212.932 137.497 213.722 136.795 214.797 136.795C215.822 136.795 216.441 137.442 216.441 138.568V143H217.53V138.494C217.53 136.671 216.561 135.817 215.111 135.817C213.994 135.817 213.357 136.283 213.025 137.017H212.932V133.545H211.843V143H212.932V138.734ZM222.497 143.148C223.937 143.148 224.989 142.428 225.322 141.357L224.269 141.061C223.992 141.8 223.351 142.169 222.497 142.169C221.218 142.169 220.336 141.343 220.285 139.824H225.433V139.362C225.433 136.722 223.863 135.817 222.386 135.817C220.465 135.817 219.191 137.331 219.191 139.51C219.191 141.689 220.447 143.148 222.497 143.148ZM220.285 138.882C220.359 137.779 221.139 136.795 222.386 136.795C223.568 136.795 224.325 137.682 224.325 138.882H220.285ZM228.179 138.734C228.179 137.497 228.946 136.795 229.989 136.795C231 136.795 231.614 137.456 231.614 138.568V143H232.704V138.494C232.704 136.685 231.739 135.817 230.303 135.817C229.232 135.817 228.567 136.297 228.235 137.017H228.142V135.909H227.09V143H228.179V138.734ZM63.0838 163.166C64.321 163.166 64.9673 162.501 65.1889 162.04H65.2443V163H66.3338V158.328C66.3338 156.075 64.6165 155.817 63.7116 155.817C62.6406 155.817 61.4219 156.186 60.8679 157.479L61.902 157.848C62.142 157.331 62.7099 156.777 63.7486 156.777C64.7504 156.777 65.2443 157.308 65.2443 158.217V158.254C65.2443 158.781 64.7088 158.734 63.4162 158.901C62.1005 159.071 60.6648 159.362 60.6648 160.987C60.6648 162.372 61.7358 163.166 63.0838 163.166ZM63.25 162.188C62.3821 162.188 61.7543 161.8 61.7543 161.043C61.7543 160.212 62.5114 159.953 63.3608 159.842C63.8224 159.787 65.0597 159.658 65.2443 159.436V160.433C65.2443 161.32 64.5426 162.188 63.25 162.188ZM71.9786 165.659H73.0681V161.911H73.1604C73.4005 162.298 73.8621 163.148 75.2286 163.148C77.0013 163.148 78.2385 161.726 78.2385 159.473C78.2385 157.239 77.0013 155.817 75.2101 155.817C73.8252 155.817 73.4005 156.666 73.1604 157.036H73.0312V155.909H71.9786V165.659ZM73.0496 159.455C73.0496 157.866 73.7513 156.795 75.0809 156.795C76.4658 156.795 77.1491 157.959 77.1491 159.455C77.1491 160.969 76.4474 162.169 75.0809 162.169C73.7698 162.169 73.0496 161.061 73.0496 159.455ZM79.9005 163H80.99V155.909H79.9005V163ZM80.4545 154.727C80.8792 154.727 81.23 154.395 81.23 153.989C81.23 153.582 80.8792 153.25 80.4545 153.25C80.0297 153.25 79.6789 153.582 79.6789 153.989C79.6789 154.395 80.0297 154.727 80.4545 154.727ZM82.9854 165.659H84.0749V161.911H84.1673C84.4073 162.298 84.869 163.148 86.2354 163.148C88.0082 163.148 89.2454 161.726 89.2454 159.473C89.2454 157.239 88.0082 155.817 86.217 155.817C84.832 155.817 84.4073 156.666 84.1673 157.036H84.038V155.909H82.9854V165.659ZM84.0565 159.455C84.0565 157.866 84.7582 156.795 86.0877 156.795C87.4727 156.795 88.1559 157.959 88.1559 159.455C88.1559 160.969 87.4542 162.169 86.0877 162.169C84.7766 162.169 84.0565 161.061 84.0565 159.455ZM93.8803 163.148C95.3207 163.148 96.3732 162.428 96.7056 161.357L95.6531 161.061C95.3761 161.8 94.7344 162.169 93.8803 162.169C92.6016 162.169 91.7198 161.343 91.669 159.824H96.8164V159.362C96.8164 156.722 95.2468 155.817 93.7695 155.817C91.8491 155.817 90.5749 157.331 90.5749 159.51C90.5749 161.689 91.8306 163.148 93.8803 163.148ZM91.669 158.882C91.7429 157.779 92.5231 156.795 93.7695 156.795C94.9513 156.795 95.7085 157.682 95.7085 158.882H91.669ZM102.13 163H103.219V155.909H102.13V163ZM102.684 154.727C103.109 154.727 103.46 154.395 103.46 153.989C103.46 153.582 103.109 153.25 102.684 153.25C102.259 153.25 101.908 153.582 101.908 153.989C101.908 154.395 102.259 154.727 102.684 154.727ZM110.238 157.497C109.896 156.491 109.13 155.817 107.726 155.817C106.231 155.817 105.123 156.666 105.123 157.866C105.123 158.845 105.704 159.501 107.006 159.805L108.188 160.082C108.903 160.249 109.241 160.59 109.241 161.08C109.241 161.689 108.594 162.188 107.579 162.188C106.688 162.188 106.129 161.804 105.935 161.043L104.901 161.301C105.155 162.506 106.147 163.148 107.597 163.148C109.245 163.148 110.367 162.248 110.367 161.024C110.367 160.036 109.748 159.413 108.483 159.104L107.431 158.845C106.591 158.637 106.212 158.356 106.212 157.811C106.212 157.202 106.858 156.759 107.726 156.759C108.677 156.759 109.07 157.285 109.259 157.774L110.238 157.497ZM116.753 153.545H115.663V163H116.753V153.545ZM121.721 163.148C123.161 163.148 124.214 162.428 124.546 161.357L123.494 161.061C123.217 161.8 122.575 162.169 121.721 162.169C120.442 162.169 119.561 161.343 119.51 159.824H124.657V159.362C124.657 156.722 123.088 155.817 121.61 155.817C119.69 155.817 118.416 157.331 118.416 159.51C118.416 161.689 119.671 163.148 121.721 163.148ZM119.51 158.882C119.584 157.779 120.364 156.795 121.61 156.795C122.792 156.795 123.549 157.682 123.549 158.882H119.51ZM128.401 163.166C129.638 163.166 130.285 162.501 130.506 162.04H130.562V163H131.651V158.328C131.651 156.075 129.934 155.817 129.029 155.817C127.958 155.817 126.739 156.186 126.185 157.479L127.219 157.848C127.459 157.331 128.027 156.777 129.066 156.777C130.068 156.777 130.562 157.308 130.562 158.217V158.254C130.562 158.781 130.026 158.734 128.734 158.901C127.418 159.071 125.982 159.362 125.982 160.987C125.982 162.372 127.053 163.166 128.401 163.166ZM128.567 162.188C127.699 162.188 127.072 161.8 127.072 161.043C127.072 160.212 127.829 159.953 128.678 159.842C129.14 159.787 130.377 159.658 130.562 159.436V160.433C130.562 161.32 129.86 162.188 128.567 162.188ZM133.64 163H134.729V160.346L135.491 159.639L138.145 163H139.53L136.313 158.938L139.309 155.909H137.961L134.858 159.067H134.729V153.545H133.64V163ZM140.711 163H141.801V155.909H140.711V163ZM141.265 154.727C141.69 154.727 142.041 154.395 142.041 153.989C142.041 153.582 141.69 153.25 141.265 153.25C140.84 153.25 140.489 153.582 140.489 153.989C140.489 154.395 140.84 154.727 141.265 154.727ZM144.885 158.734C144.885 157.497 145.652 156.795 146.695 156.795C147.706 156.795 148.32 157.456 148.32 158.568V163H149.41V158.494C149.41 156.685 148.445 155.817 147.009 155.817C145.938 155.817 145.273 156.297 144.941 157.017H144.849V155.909H143.796V163H144.885V158.734ZM154.263 165.807C155.962 165.807 157.328 165.031 157.328 163.203V155.909H156.275V157.036H156.165C155.925 156.666 155.481 155.817 154.097 155.817C152.305 155.817 151.068 157.239 151.068 159.418C151.068 161.634 152.361 162.889 154.078 162.889C155.463 162.889 155.906 162.077 156.146 161.689H156.239V163.129C156.239 164.311 155.408 164.847 154.263 164.847C152.975 164.847 152.522 164.168 152.231 163.776L151.364 164.385C151.807 165.128 152.679 165.807 154.263 165.807ZM154.226 161.911C152.859 161.911 152.158 160.876 152.158 159.399C152.158 157.959 152.841 156.795 154.226 156.795C155.555 156.795 156.257 157.866 156.257 159.399C156.257 160.969 155.537 161.911 154.226 161.911ZM160.744 160.341H161.852V160.286C161.871 159.141 162.166 158.642 162.979 158.134C163.791 157.64 164.271 156.929 164.271 155.909C164.271 154.469 163.219 153.416 161.594 153.416C160.098 153.416 158.911 154.339 158.842 155.909H160.006C160.075 154.82 160.837 154.376 161.594 154.376C162.462 154.376 163.163 154.949 163.163 155.854C163.163 156.588 162.743 157.114 162.203 157.442C161.298 157.991 160.758 158.527 160.744 160.286V160.341ZM161.335 163.074C161.792 163.074 162.166 162.7 162.166 162.243C162.166 161.786 161.792 161.412 161.335 161.412C160.878 161.412 160.504 161.786 160.504 162.243C160.504 162.7 160.878 163.074 161.335 163.074Z" fill="#262B35"/>
<g filter="url(#filter3_d)">
<path d="M346 41C346 38.2386 348.239 36 351 36H541C543.761 36 546 38.2386 546 41V92C546 94.7614 543.761 97 541 97H391.221C389.462 97 387.833 97.9239 386.93 99.4331L380.01 111L372.176 99.2296C371.249 97.8368 369.687 97 368.014 97H351C348.239 97 346 94.7614 346 92V41Z" fill="white"/>
</g>
<path d="M369.062 61C371.943 61 373.568 59.2088 373.568 56.2543C373.568 53.3182 371.943 51.5455 369.192 51.5455H366.145V61H369.062ZM367.29 59.9844V52.5611H369.118C371.334 52.5611 372.46 53.9645 372.46 56.2543C372.46 58.5625 371.334 59.9844 368.989 59.9844H367.29ZM378.222 61.1477C380.142 61.1477 381.435 59.6889 381.435 57.4915C381.435 55.2756 380.142 53.8168 378.222 53.8168C376.301 53.8168 375.009 55.2756 375.009 57.4915C375.009 59.6889 376.301 61.1477 378.222 61.1477ZM378.222 60.169C376.763 60.169 376.098 58.9134 376.098 57.4915C376.098 56.0696 376.763 54.7955 378.222 54.7955C379.68 54.7955 380.345 56.0696 380.345 57.4915C380.345 58.9134 379.68 60.169 378.222 60.169ZM386.071 61.1477C387.511 61.1477 388.564 60.4276 388.896 59.3565L387.843 59.0611C387.566 59.7997 386.925 60.169 386.071 60.169C384.792 60.169 383.91 59.3427 383.859 57.8239H389.007V57.3622C389.007 54.7216 387.437 53.8168 385.96 53.8168C384.04 53.8168 382.765 55.331 382.765 57.5099C382.765 59.6889 384.021 61.1477 386.071 61.1477ZM383.859 56.8821C383.933 55.7788 384.714 54.7955 385.96 54.7955C387.142 54.7955 387.899 55.6818 387.899 56.8821H383.859ZM395.687 55.4972C395.345 54.4908 394.579 53.8168 393.176 53.8168C391.68 53.8168 390.572 54.6662 390.572 55.8665C390.572 56.8452 391.153 57.5007 392.455 57.8054L393.637 58.0824C394.353 58.2486 394.69 58.5902 394.69 59.0795C394.69 59.6889 394.043 60.1875 393.028 60.1875C392.137 60.1875 391.578 59.8043 391.384 59.0426L390.35 59.3011C390.604 60.506 391.597 61.1477 393.046 61.1477C394.694 61.1477 395.816 60.2475 395.816 59.0241C395.816 58.0362 395.198 57.413 393.933 57.1037L392.88 56.8452C392.04 56.6374 391.661 56.3558 391.661 55.8111C391.661 55.2017 392.308 54.7585 393.176 54.7585C394.127 54.7585 394.519 55.2848 394.708 55.7741L395.687 55.4972ZM401.814 63.6406C402.797 63.6406 403.494 63.119 403.901 62.0341L406.92 53.9276L405.729 53.9091L403.771 59.5597H403.698L401.74 53.9091H400.558L403.181 61.0369L402.977 61.5909C402.59 62.6527 402.091 62.7543 401.297 62.5511L401.02 63.5114C401.131 63.5668 401.445 63.6406 401.814 63.6406ZM410.988 61.1477C412.909 61.1477 414.201 59.6889 414.201 57.4915C414.201 55.2756 412.909 53.8168 410.988 53.8168C409.068 53.8168 407.775 55.2756 407.775 57.4915C407.775 59.6889 409.068 61.1477 410.988 61.1477ZM410.988 60.169C409.529 60.169 408.865 58.9134 408.865 57.4915C408.865 56.0696 409.529 54.7955 410.988 54.7955C412.447 54.7955 413.112 56.0696 413.112 57.4915C413.112 58.9134 412.447 60.169 410.988 60.169ZM420.333 58.1009C420.333 59.4304 419.317 60.0398 418.505 60.0398C417.6 60.0398 416.954 59.375 416.954 58.3409V53.9091H415.864V58.4148C415.864 60.2244 416.825 61.0923 418.154 61.0923C419.225 61.0923 419.927 60.5199 420.259 59.7997H420.333V61H421.423V53.9091H420.333V58.1009ZM423.418 61H424.508V56.5128C424.508 55.5526 425.265 54.8509 426.299 54.8509C426.59 54.8509 426.89 54.9062 426.964 54.9247V53.8168C426.839 53.8075 426.553 53.7983 426.391 53.7983C425.542 53.7983 424.803 54.2784 424.544 54.9801H424.471V53.9091H423.418V61ZM433.001 56.7344C433.001 55.4972 433.79 54.7955 434.866 54.7955C435.891 54.7955 436.509 55.4418 436.509 56.5682V61H437.599V56.4943C437.599 54.6708 436.629 53.8168 435.18 53.8168C434.062 53.8168 433.425 54.283 433.093 55.017H433.001V51.5455H431.911V61H433.001V56.7344ZM442.473 61.1477C444.393 61.1477 445.686 59.6889 445.686 57.4915C445.686 55.2756 444.393 53.8168 442.473 53.8168C440.552 53.8168 439.259 55.2756 439.259 57.4915C439.259 59.6889 440.552 61.1477 442.473 61.1477ZM442.473 60.169C441.014 60.169 440.349 58.9134 440.349 57.4915C440.349 56.0696 441.014 54.7955 442.473 54.7955C443.931 54.7955 444.596 56.0696 444.596 57.4915C444.596 58.9134 443.931 60.169 442.473 60.169ZM447.349 61H448.438V56.5682C448.438 55.5295 449.195 54.7955 450.045 54.7955C450.871 54.7955 451.448 55.3356 451.448 56.1435V61H452.556V56.3835C452.556 55.4695 453.129 54.7955 454.126 54.7955C454.901 54.7955 455.566 55.2063 455.566 56.2543V61H456.656V56.2543C456.656 54.5877 455.76 53.8168 454.495 53.8168C453.479 53.8168 452.736 54.283 452.371 55.017H452.298C451.947 54.2599 451.328 53.8168 450.396 53.8168C449.472 53.8168 448.789 54.2599 448.494 55.017H448.401V53.9091H447.349V61ZM461.621 61.1477C463.061 61.1477 464.113 60.4276 464.446 59.3565L463.393 59.0611C463.116 59.7997 462.475 60.169 461.621 60.169C460.342 60.169 459.46 59.3427 459.409 57.8239H464.557V57.3622C464.557 54.7216 462.987 53.8168 461.51 53.8168C459.589 53.8168 458.315 55.331 458.315 57.5099C458.315 59.6889 459.571 61.1477 461.621 61.1477ZM459.409 56.8821C459.483 55.7788 460.263 54.7955 461.51 54.7955C462.692 54.7955 463.449 55.6818 463.449 56.8821H459.409ZM469.87 61H470.96V58.3455L471.721 57.6392L474.376 61H475.761L472.543 56.9375L475.539 53.9091H474.191L471.089 57.0668H470.96V51.5455H469.87V61ZM478.031 56.7344C478.031 55.4972 478.797 54.7955 479.841 54.7955C480.852 54.7955 481.466 55.4556 481.466 56.5682V61H482.555V56.4943C482.555 54.6847 481.59 53.8168 480.155 53.8168C479.084 53.8168 478.419 54.2969 478.086 55.017H477.994V53.9091H476.941V61H478.031V56.7344ZM487.427 61.1477C489.347 61.1477 490.64 59.6889 490.64 57.4915C490.64 55.2756 489.347 53.8168 487.427 53.8168C485.506 53.8168 484.214 55.2756 484.214 57.4915C484.214 59.6889 485.506 61.1477 487.427 61.1477ZM487.427 60.169C485.968 60.169 485.303 58.9134 485.303 57.4915C485.303 56.0696 485.968 54.7955 487.427 54.7955C488.885 54.7955 489.55 56.0696 489.55 57.4915C489.55 58.9134 488.885 60.169 487.427 60.169ZM493.668 61H494.739L496.29 55.5526H496.401L497.952 61H499.023L501.184 53.9091H500.039L498.506 59.3196H498.432L496.937 53.9091H495.773L494.259 59.3381H494.185L492.653 53.9091H491.508L493.668 61ZM368.084 81.1662C369.321 81.1662 369.967 80.5014 370.189 80.0398H370.244V81H371.334V76.3281C371.334 74.0753 369.616 73.8168 368.712 73.8168C367.641 73.8168 366.422 74.1861 365.868 75.4787L366.902 75.848C367.142 75.331 367.71 74.777 368.749 74.777C369.75 74.777 370.244 75.3079 370.244 76.2173V76.2543C370.244 76.7805 369.709 76.7344 368.416 76.9006C367.1 77.0714 365.665 77.3622 365.665 78.9872C365.665 80.3722 366.736 81.1662 368.084 81.1662ZM368.25 80.1875C367.382 80.1875 366.754 79.7997 366.754 79.0426C366.754 78.2116 367.511 77.9531 368.361 77.8423C368.822 77.7869 370.06 77.6577 370.244 77.4361V78.4332C370.244 79.3196 369.543 80.1875 368.25 80.1875ZM373.47 81H374.523V79.9105H374.652C374.892 80.2983 375.354 81.1477 376.72 81.1477C378.493 81.1477 379.73 79.7259 379.73 77.473C379.73 75.2386 378.493 73.8168 376.702 73.8168C375.317 73.8168 374.892 74.6662 374.652 75.0355H374.56V71.5455H373.47V81ZM374.541 77.4545C374.541 75.8665 375.243 74.7955 376.572 74.7955C377.957 74.7955 378.641 75.9588 378.641 77.4545C378.641 78.9688 377.939 80.169 376.572 80.169C375.261 80.169 374.541 79.0611 374.541 77.4545ZM384.277 81.1477C386.198 81.1477 387.49 79.6889 387.49 77.4915C387.49 75.2756 386.198 73.8168 384.277 73.8168C382.357 73.8168 381.064 75.2756 381.064 77.4915C381.064 79.6889 382.357 81.1477 384.277 81.1477ZM384.277 80.169C382.818 80.169 382.154 78.9134 382.154 77.4915C382.154 76.0696 382.818 74.7955 384.277 74.7955C385.736 74.7955 386.401 76.0696 386.401 77.4915C386.401 78.9134 385.736 80.169 384.277 80.169ZM393.622 78.1009C393.622 79.4304 392.607 80.0398 391.794 80.0398C390.889 80.0398 390.243 79.375 390.243 78.3409V73.9091H389.153V78.4148C389.153 80.2244 390.114 81.0923 391.443 81.0923C392.514 81.0923 393.216 80.5199 393.548 79.7997H393.622V81H394.712V73.9091H393.622V78.1009ZM399.791 73.9091H398.277V72.2102H397.187V73.9091H396.116V74.8324H397.187V79.2642C397.187 80.5014 398.184 81.0923 399.108 81.0923C399.514 81.0923 399.772 81.0185 399.92 80.9631L399.699 79.9844C399.606 80.0028 399.459 80.0398 399.218 80.0398C398.738 80.0398 398.277 79.892 398.277 78.9688V74.8324H399.791V73.9091ZM406.176 76.7344C406.176 75.4972 406.965 74.7955 408.041 74.7955C409.065 74.7955 409.684 75.4418 409.684 76.5682V81H410.774V76.4943C410.774 74.6708 409.804 73.8168 408.354 73.8168C407.237 73.8168 406.6 74.283 406.268 75.017H406.176V71.5455H405.086V81H406.176V76.7344ZM415.647 81.1477C417.568 81.1477 418.86 79.6889 418.86 77.4915C418.86 75.2756 417.568 73.8168 415.647 73.8168C413.727 73.8168 412.434 75.2756 412.434 77.4915C412.434 79.6889 413.727 81.1477 415.647 81.1477ZM415.647 80.169C414.189 80.169 413.524 78.9134 413.524 77.4915C413.524 76.0696 414.189 74.7955 415.647 74.7955C417.106 74.7955 417.771 76.0696 417.771 77.4915C417.771 78.9134 417.106 80.169 415.647 80.169ZM423.607 73.9091H422.093V72.2102H421.004V73.9091H419.933V74.8324H421.004V79.2642C421.004 80.5014 422.001 81.0923 422.924 81.0923C423.33 81.0923 423.589 81.0185 423.737 80.9631L423.515 79.9844C423.423 80.0028 423.275 80.0398 423.035 80.0398C422.555 80.0398 422.093 79.892 422.093 78.9688V74.8324H423.607V73.9091ZM430.509 81H431.58L433.131 75.5526H433.242L434.793 81H435.864L438.025 73.9091H436.88L435.347 79.3196H435.273L433.777 73.9091H432.614L431.1 79.3381H431.026L429.493 73.9091H428.348L430.509 81ZM441.552 81.1662C442.789 81.1662 443.435 80.5014 443.657 80.0398H443.712V81H444.802V76.3281C444.802 74.0753 443.084 73.8168 442.179 73.8168C441.108 73.8168 439.89 74.1861 439.336 75.4787L440.37 75.848C440.61 75.331 441.178 74.777 442.216 74.777C443.218 74.777 443.712 75.3079 443.712 76.2173V76.2543C443.712 76.7805 443.177 76.7344 441.884 76.9006C440.568 77.0714 439.133 77.3622 439.133 78.9872C439.133 80.3722 440.204 81.1662 441.552 81.1662ZM441.718 80.1875C440.85 80.1875 440.222 79.7997 440.222 79.0426C440.222 78.2116 440.979 77.9531 441.829 77.8423C442.29 77.7869 443.527 77.6577 443.712 77.4361V78.4332C443.712 79.3196 443.01 80.1875 441.718 80.1875ZM449.874 73.9091H448.36V72.2102H447.27V73.9091H446.199V74.8324H447.27V79.2642C447.27 80.5014 448.267 81.0923 449.191 81.0923C449.597 81.0923 449.855 81.0185 450.003 80.9631L449.782 79.9844C449.689 80.0028 449.542 80.0398 449.301 80.0398C448.821 80.0398 448.36 79.892 448.36 78.9688V74.8324H449.874V73.9091ZM454.41 81.1477C455.85 81.1477 456.903 80.4276 457.235 79.3565L456.182 79.0611C455.905 79.7997 455.264 80.169 454.41 80.169C453.131 80.169 452.249 79.3427 452.198 77.8239H457.346V77.3622C457.346 74.7216 455.776 73.8168 454.299 73.8168C452.378 73.8168 451.104 75.331 451.104 77.5099C451.104 79.6889 452.36 81.1477 454.41 81.1477ZM452.198 76.8821C452.272 75.7788 453.052 74.7955 454.299 74.7955C455.481 74.7955 456.238 75.6818 456.238 76.8821H452.198ZM459.003 81H460.093V76.5128C460.093 75.5526 460.85 74.8509 461.884 74.8509C462.175 74.8509 462.475 74.9062 462.548 74.9247V73.8168C462.424 73.8075 462.138 73.7983 461.976 73.7983C461.127 73.7983 460.388 74.2784 460.129 74.9801H460.056V73.9091H459.003V81ZM467.496 83.6591H468.586V79.9105H468.678C468.918 80.2983 469.38 81.1477 470.746 81.1477C472.519 81.1477 473.756 79.7259 473.756 77.473C473.756 75.2386 472.519 73.8168 470.728 73.8168C469.343 73.8168 468.918 74.6662 468.678 75.0355H468.549V73.9091H467.496V83.6591ZM468.567 77.4545C468.567 75.8665 469.269 74.7955 470.598 74.7955C471.983 74.7955 472.667 75.9588 472.667 77.4545C472.667 78.9688 471.965 80.169 470.598 80.169C469.287 80.169 468.567 79.0611 468.567 77.4545ZM475.418 81H476.508V76.5128C476.508 75.5526 477.265 74.8509 478.299 74.8509C478.59 74.8509 478.89 74.9062 478.964 74.9247V73.8168C478.839 73.8075 478.553 73.7983 478.391 73.7983C477.542 73.7983 476.803 74.2784 476.544 74.9801H476.471V73.9091H475.418V81ZM482.92 81.1477C484.84 81.1477 486.133 79.6889 486.133 77.4915C486.133 75.2756 484.84 73.8168 482.92 73.8168C480.999 73.8168 479.707 75.2756 479.707 77.4915C479.707 79.6889 480.999 81.1477 482.92 81.1477ZM482.92 80.169C481.461 80.169 480.796 78.9134 480.796 77.4915C480.796 76.0696 481.461 74.7955 482.92 74.7955C484.379 74.7955 485.043 76.0696 485.043 77.4915C485.043 78.9134 484.379 80.169 482.92 80.169ZM487.944 81H488.996V79.9105H489.126C489.366 80.2983 489.827 81.1477 491.194 81.1477C492.966 81.1477 494.204 79.7259 494.204 77.473C494.204 75.2386 492.966 73.8168 491.175 73.8168C489.79 73.8168 489.366 74.6662 489.126 75.0355H489.033V71.5455H487.944V81ZM489.015 77.4545C489.015 75.8665 489.716 74.7955 491.046 74.7955C492.431 74.7955 493.114 75.9588 493.114 77.4545C493.114 78.9688 492.412 80.169 491.046 80.169C489.735 80.169 489.015 79.0611 489.015 77.4545ZM496.96 71.5455H495.87V81H496.96V71.5455ZM501.928 81.1477C503.369 81.1477 504.421 80.4276 504.753 79.3565L503.701 79.0611C503.424 79.7997 502.782 80.169 501.928 80.169C500.649 80.169 499.768 79.3427 499.717 77.8239H504.864V77.3622C504.864 74.7216 503.295 73.8168 501.817 73.8168C499.897 73.8168 498.623 75.331 498.623 77.5099C498.623 79.6889 499.878 81.1477 501.928 81.1477ZM499.717 76.8821C499.791 75.7788 500.571 74.7955 501.817 74.7955C502.999 74.7955 503.756 75.6818 503.756 76.8821H499.717ZM506.522 81H507.611V76.5682C507.611 75.5295 508.368 74.7955 509.218 74.7955C510.044 74.7955 510.621 75.3356 510.621 76.1435V81H511.729V76.3835C511.729 75.4695 512.301 74.7955 513.299 74.7955C514.074 74.7955 514.739 75.2063 514.739 76.2543V81H515.828V76.2543C515.828 74.5877 514.933 73.8168 513.668 73.8168C512.652 73.8168 511.909 74.283 511.544 75.017H511.47C511.12 74.2599 510.501 73.8168 509.568 73.8168C508.645 73.8168 507.962 74.2599 507.666 75.017H507.574V73.9091H506.522V81ZM519.242 78.3409H520.35V78.2855C520.369 77.1406 520.664 76.642 521.477 76.1342C522.289 75.6403 522.769 74.9293 522.769 73.9091C522.769 72.4688 521.717 71.4162 520.092 71.4162C518.596 71.4162 517.41 72.3395 517.34 73.9091H518.504C518.573 72.8196 519.335 72.3764 520.092 72.3764C520.96 72.3764 521.661 72.9489 521.661 73.8537C521.661 74.5877 521.241 75.114 520.701 75.4418C519.796 75.9911 519.256 76.5266 519.242 78.2855V78.3409ZM519.833 81.0739C520.29 81.0739 520.664 80.6999 520.664 80.2429C520.664 79.7859 520.29 79.4119 519.833 79.4119C519.376 79.4119 519.002 79.7859 519.002 80.2429C519.002 80.6999 519.376 81.0739 519.833 81.0739Z" fill="#262B35"/>
<defs>
<filter id="filter0_d" x="237" y="330" width="316" height="194" filterUnits="userSpaceOnUse" color-interpolation-filters="sRGB">
<feFlood flood-opacity="0" result="BackgroundImageFix"/>
<feColorMatrix in="SourceAlpha" type="matrix" values="0 0 0 0 0 0 0 0 0 0 0 0 0 0 0 0 0 0 127 0" result="hardAlpha"/>
<feOffset dy="12"/>
<feGaussianBlur stdDeviation="24"/>
<feColorMatrix type="matrix" values="0 0 0 0 0.171701 0 0 0 0 0.177292 0 0 0 0 0.191667 0 0 0 0.16 0"/>
<feBlend mode="normal" in2="BackgroundImageFix" result="effect1_dropShadow"/>
<feBlend mode="normal" in="SourceGraphic" in2="effect1_dropShadow" result="shape"/>
</filter>
<filter id="filter1_d" x="47" y="200" width="306" height="174" filterUnits="userSpaceOnUse" color-interpolation-filters="sRGB">
<feFlood flood-opacity="0" result="BackgroundImageFix"/>
<feColorMatrix in="SourceAlpha" type="matrix" values="0 0 0 0 0 0 0 0 0 0 0 0 0 0 0 0 0 0 127 0" result="hardAlpha"/>
<feOffset dy="12"/>
<feGaussianBlur stdDeviation="24"/>
<feColorMatrix type="matrix" values="0 0 0 0 0.171701 0 0 0 0 0.177292 0 0 0 0 0.191667 0 0 0 0.16 0"/>
<feBlend mode="normal" in2="BackgroundImageFix" result="effect1_dropShadow"/>
<feBlend mode="normal" in="SourceGraphic" in2="effect1_dropShadow" result="shape"/>
</filter>
<filter id="filter2_d" x="0" y="83" width="296" height="171" filterUnits="userSpaceOnUse" color-interpolation-filters="sRGB">
<feFlood flood-opacity="0" result="BackgroundImageFix"/>
<feColorMatrix in="SourceAlpha" type="matrix" values="0 0 0 0 0 0 0 0 0 0 0 0 0 0 0 0 0 0 127 0" result="hardAlpha"/>
<feOffset dy="12"/>
<feGaussianBlur stdDeviation="24"/>
<feColorMatrix type="matrix" values="0 0 0 0 0.171701 0 0 0 0 0.177292 0 0 0 0 0.191667 0 0 0 0.16 0"/>
<feBlend mode="normal" in2="BackgroundImageFix" result="effect1_dropShadow"/>
<feBlend mode="normal" in="SourceGraphic" in2="effect1_dropShadow" result="shape"/>
</filter>
<filter id="filter3_d" x="298" y="0" width="296" height="171" filterUnits="userSpaceOnUse" color-interpolation-filters="sRGB">
<feFlood flood-opacity="0" result="BackgroundImageFix"/>
<feColorMatrix in="SourceAlpha" type="matrix" values="0 0 0 0 0 0 0 0 0 0 0 0 0 0 0 0 0 0 127 0" result="hardAlpha"/>
<feOffset dy="12"/>
<feGaussianBlur stdDeviation="24"/>
<feColorMatrix type="matrix" values="0 0 0 0 0.171701 0 0 0 0 0.177292 0 0 0 0 0.191667 0 0 0 0.16 0"/>
<feBlend mode="normal" in2="BackgroundImageFix" result="effect1_dropShadow"/>
<feBlend mode="normal" in="SourceGraphic" in2="effect1_dropShadow" result="shape"/>
</filter>
</defs>
</svg>
