<svg width="157" height="22" viewBox="0 0 157 22" fill="none" xmlns="http://www.w3.org/2000/svg">
<path d="M9.44238 5.39844H12.2314C12.1768 2.69531 9.87207 0.781249 6.46582 0.781249C3.10645 0.781249 0.583008 2.67187 0.59082 5.5C0.59082 7.79687 2.22363 9.11719 4.85645 9.79687L6.67676 10.2656C8.40332 10.7031 9.54395 11.2422 9.55176 12.4844C9.54395 13.8516 8.24707 14.7656 6.35645 14.7656C4.54395 14.7656 3.1377 13.9531 3.02051 12.2734H0.168945C0.286133 15.4531 2.65332 17.2422 6.37988 17.2422C10.2158 17.2422 12.4424 15.3281 12.4502 12.5078C12.4424 9.73437 10.1533 8.46875 7.74707 7.89844L6.24707 7.52344C4.93457 7.21094 3.5127 6.65625 3.52832 5.32031C3.53613 4.11719 4.61426 3.23437 6.42676 3.23437C8.15332 3.23437 9.29395 4.03906 9.44238 5.39844ZM14.9092 17H17.7373V5H14.9092V17ZM16.3311 3.29688C17.2295 3.29688 17.9639 2.60938 17.9639 1.76562C17.9639 0.914062 17.2295 0.226562 16.3311 0.226562C15.4248 0.226562 14.6904 0.914062 14.6904 1.76562C14.6904 2.60938 15.4248 3.29688 16.3311 3.29688ZM20.6455 21.5H23.4736V15.1094H23.5908C24.0361 15.9844 24.9658 17.2109 27.0283 17.2109C29.8564 17.2109 31.9736 14.9687 31.9736 11.0156C31.9736 7.01562 29.7939 4.84375 27.0205 4.84375C24.9033 4.84375 24.0205 6.11719 23.5908 6.98437H23.4268V5H20.6455V21.5ZM23.4189 11C23.4189 8.67187 24.4189 7.16406 26.2393 7.16406C28.1221 7.16406 29.0908 8.76562 29.0908 11C29.0908 13.25 28.1064 14.8906 26.2393 14.8906C24.4346 14.8906 23.4189 13.3281 23.4189 11ZM37.2236 9.96875C37.2236 8.23438 38.3018 7.23437 39.8174 7.23437C41.3018 7.23437 42.1768 8.17969 42.1768 9.79687V17H45.0049V9.35937C45.0049 6.46094 43.3643 4.84375 40.8721 4.84375C39.0283 4.84375 37.8564 5.67969 37.3018 7.03906H37.1611V1H34.3955V17H37.2236V9.96875ZM53.1221 17.2344C56.6377 17.2344 58.8721 14.7578 58.8721 11.0469C58.8721 7.32812 56.6377 4.84375 53.1221 4.84375C49.6064 4.84375 47.3721 7.32812 47.3721 11.0469C47.3721 14.7578 49.6064 17.2344 53.1221 17.2344ZM53.1377 14.9687C51.1924 14.9687 50.2393 13.2344 50.2393 11.0391C50.2393 8.84375 51.1924 7.08594 53.1377 7.08594C55.0518 7.08594 56.0049 8.84375 56.0049 11.0391C56.0049 13.2344 55.0518 14.9687 53.1377 14.9687ZM61.2725 17H64.1006V9.70312C64.1006 8.22656 65.085 7.22656 66.3037 7.22656C67.499 7.22656 68.3193 8.03125 68.3193 9.26562V17H71.0928V9.51562C71.0928 8.16406 71.8975 7.22656 73.2646 7.22656C74.4053 7.22656 75.3115 7.89844 75.3115 9.38281V17H78.1475V8.94531C78.1475 6.26562 76.6006 4.84375 74.3975 4.84375C72.6553 4.84375 71.3271 5.70313 70.7959 7.03906H70.6709C70.21 5.67969 69.0459 4.84375 67.4287 4.84375C65.8193 4.84375 64.6162 5.67187 64.1162 7.03906H63.9756V5H61.2725V17ZM86.3291 17.2344C89.126 17.2344 91.0479 15.8672 91.5479 13.7812L88.9072 13.4844C88.5244 14.5 87.5869 15.0312 86.3682 15.0312C84.54 15.0312 83.3291 13.8281 83.3057 11.7734H91.665V10.9062C91.665 6.69531 89.1338 4.84375 86.1807 4.84375C82.7432 4.84375 80.501 7.36719 80.501 11.0703C80.501 14.8359 82.7119 17.2344 86.3291 17.2344ZM83.3135 9.86719C83.3994 8.33594 84.5322 7.04687 86.2197 7.04687C87.8447 7.04687 88.9385 8.23438 88.9541 9.86719H83.3135ZM99.6396 1V17H102.421V5.98437H102.569L106.991 16.9531H109.069L113.491 6.00781H113.64V17H116.421V1H112.874L108.124 12.5937H107.937L103.187 1H99.6396ZM124.765 17.2344C127.562 17.2344 129.483 15.8672 129.983 13.7812L127.343 13.4844C126.96 14.5 126.022 15.0312 124.804 15.0312C122.976 15.0312 121.765 13.8281 121.741 11.7734H130.101V10.9062C130.101 6.69531 127.569 4.84375 124.616 4.84375C121.179 4.84375 118.937 7.36719 118.937 11.0703C118.937 14.8359 121.147 17.2344 124.765 17.2344ZM121.749 9.86719C121.835 8.33594 122.968 7.04687 124.655 7.04687C126.28 7.04687 127.374 8.23438 127.39 9.86719H121.749ZM135.321 9.96875C135.321 8.23438 136.368 7.23437 137.86 7.23437C139.321 7.23437 140.196 8.19531 140.196 9.79687V17H143.024V9.35937C143.032 6.48437 141.392 4.84375 138.915 4.84375C137.118 4.84375 135.884 5.70313 135.337 7.03906H135.196V5H132.493V17H135.321V9.96875ZM153.548 11.9531C153.548 13.7812 152.243 14.6875 150.993 14.6875C149.634 14.6875 148.728 13.7266 148.728 12.2031V5H145.899V12.6406C145.899 15.5234 147.54 17.1563 149.899 17.1563C151.696 17.1563 152.962 16.2109 153.509 14.8672H153.634V17H156.376V5H153.548V11.9531Z" fill="#262B35"/>
</svg>
